<svg width="1440" height="420" viewBox="0 0 1440 420" fill="none" xmlns="http://www.w3.org/2000/svg">
<path d="M577.139 157.288C642.475 126.844 623.938 117.743 642.475 126.844C651.404 125.277 660.823 121.776 669.22 119.888C671.92 117.078 673.906 114.54 675.964 112.364C679.967 111.175 683.269 112.62 686.891 113.723C690.07 111.081 689.795 112.366 692.92 110.885C693.622 108.723 695.143 110.166 696.235 109.808C697.99 108.605 698.113 106.019 698.642 104.975C700.31 103.674 701.802 105.225 703.247 105.361C709.755 96.9131 711.938 93.5181 721.226 96.0703C725.077 88.6945 724.649 86.893 731.93 88.2017C744.019 86.8846 743.724 79.5026 755.429 76.9054C757.86 75.0122 759.373 78.1376 761.282 78.7066C780.415 88.8585 806.255 101.735 815.601 107.172C830.967 106.567 844.378 120.843 856.324 129.888C833.427 225.822 680.755 331.183 620.795 217.627C610.538 198.19 538.895 198.976 554.525 184.951L577.139 157.288Z" fill="#8BB5D6"/>
<path d="M699.146 104.091C703.317 105.723 703.907 104.936 704.93 105.11C703.07 109.107 701.45 113.189 699.706 117.176C697.295 116.178 695.495 118.647 693.609 119.232C687.646 127.265 684.748 134.452 677.169 139.947C683.047 129.61 687.894 125.667 686.644 111.328C688.629 109.211 695.503 111.186 695.58 111.179C699.447 110.211 697.496 106.494 699.146 104.091Z" fill="#BAD2DB"/>
<path d="M672.467 118.028C670.617 123.916 667.936 126.934 664.5 131.069C662.239 131.792 660.095 132.977 657.933 133.954C652.159 139.711 648.775 143.999 642.691 148.418C646.906 142.113 650.07 135.743 653.436 128.147C658.233 126.73 657.919 123.133 658.62 122.283C664.032 122.599 668.094 121.194 672.467 118.028Z" fill="#F3E8E3"/>
<path d="M724.468 92.3724C723.096 97.956 720.845 103.248 719.604 108.558C716.773 106.756 715.935 103.362 715.022 100.447C711.088 99.3186 709.757 101.379 707.098 103.765C704.14 114.267 697.114 117.665 691.329 122.845C684.902 134.438 674.527 138.968 664.387 154.195C682.386 162.45 755.197 111.547 724.468 92.3724Z" fill="url(#paint0_linear)"/>
<path d="M658.94 139.278C659.53 143.377 652.02 161.211 652.687 165.304C656.63 167.429 675.525 151.753 676.728 150.44C667.571 143.621 663.801 139.484 658.94 139.278Z" fill="#709FC6"/>
<path d="M757.18 77.4359C756.938 81.7651 755.682 84.2387 755.756 88.6454C741.613 98.39 734.7 115.962 724.015 128.926C722.377 133.692 712.455 148.742 711.476 151.297C718.113 142.102 736.012 130.558 743.659 124.953C733.327 110.881 746.448 105.849 754.272 103.17C753.834 99.4783 756.176 101.901 756.986 101.41C759.428 100.987 760.091 97.0411 761.054 95.6437C780.888 94.2815 799.341 106.857 817.352 107.702C798.66 102.608 774.367 75.9368 757.18 77.4359Z" fill="#709FC6"/>
<path d="M772.535 116.235C767.575 114.882 758.213 109.709 755.724 107.825C746.944 128.87 744.273 124.9 736.091 141.69C741.917 145.857 753.371 139.92 798.998 173.556C801.653 172.011 762.966 135.773 764.926 133.816L764.594 130.01C774.065 131.548 781.103 139.392 789.316 145.611C784.196 131.767 776.441 129.922 767.547 124.341C766.068 123.367 766.94 121.819 766.638 120.585C782.911 122.37 797.052 131.697 811.592 139.833C799.499 127.333 787.569 114.924 772.535 116.235Z" fill="#709FC6"/>
<path d="M757.9 77.6883C758.944 85.2151 749.272 104.92 729.309 123.893C722.008 137.454 710.934 157.07 699.118 156.63C698.308 156.228 690.205 158.826 687.485 159.169L684.17 152.26C698.97 138.938 721.025 120.413 737.414 106.217C739.113 100.815 738.033 93.7638 741.699 89.6088L757.9 77.6883Z" fill="url(#paint1_linear)"/>
<path d="M736.876 140.466C722.239 147.206 719.393 151.447 715.051 162.071C725.564 162.677 742.813 158.336 763.955 151.553C751.012 148.847 744.54 147.047 736.876 140.466Z" fill="url(#paint2_linear)"/>
<path d="M755.895 108.44C755.218 117.115 756.29 125.848 757.054 134.607C755.673 132.101 753.834 132.787 752.248 131.927C750.734 134.108 749.219 136.289 747.71 138.522C744.171 140.144 740.179 141.018 736.606 141.802C729.576 146.041 722.445 152.231 716.582 160.518L709.815 161.109C719.316 145.675 731.894 136.644 742.168 127.395C744.905 128.575 745.774 124.768 746.974 123.876C749.936 115.632 751.97 113.195 755.895 108.44Z" fill="#F1E9E5"/>
<path d="M716.85 163.594C705.594 162.475 693.1 151.586 685.805 147.021C682.587 147.88 681.541 150.545 680.113 153.717C674.527 164.291 666.07 169.495 659.002 179.515C676.702 182.122 686.621 174.585 704.15 174.789C715.012 170.952 715.127 170.942 716.85 163.594Z" fill="url(#paint3_radial)"/>
<path d="M657.987 141.673C663.283 145.099 653.591 158.343 652.38 162.231C667.388 153.514 675.77 152.783 683.532 147.167L681.395 148.878C674.573 160.821 663.877 171.893 656.118 178.874C647.314 176.543 638.118 169.727 630.412 164.882C633.819 151.976 642.566 152.317 649.283 146.267C652.154 143.652 655.04 142.981 657.987 141.673Z" fill="#BAD2DB"/>
<path d="M743.589 154.8C745.007 154.624 746.434 154.552 747.957 154.682L766.604 153.055C761.593 159.114 758.364 166.068 751.43 168.301C745.786 175.098 737.379 176.882 730.468 182.476C725.552 190.522 720.388 195.281 715.185 203.142C714.183 196.978 712.624 187.552 713.18 180.149C720.275 174.434 703.659 165.165 731.782 158.457C735.647 157.016 739.378 155.378 743.589 154.8Z" fill="url(#paint4_linear)"/>
<path d="M126.589 121.651C149.18 121.651 170.684 146.71 191.899 156.777C206.779 149.259 220.827 149.734 227.643 138.199C246.522 145.544 257.402 171.985 302.105 187.711C315.705 185.637 334.296 188.1 349.72 191.816C355.672 189.353 368.055 184.6 375.575 179.459C389.911 181.144 404.375 179.545 417.75 187.711C447.158 180.712 473.717 160.751 509.236 146.753C515.924 151.246 516.532 142.951 522.996 150.296C528.98 159.455 535.092 165.893 545.299 174.015C549.107 171.466 577.971 168.528 577.971 168.528C599.762 165.201 611.282 196.136 635.41 197.994C643.921 199.16 651.697 199.247 659.889 208.32C663.985 204.172 671.345 196.525 677.585 191.816C689.392 195.963 700.816 202.919 712.944 206.246C718.128 201.969 720.912 192.334 727.919 193.89C738.223 195.445 749.743 195.747 760.559 197.994C768.847 199.117 787.918 235.582 797.71 231.477C797.71 231.477 809.07 222.448 819.469 225.299C837.965 225.299 853.805 203.611 876.172 206.289C879.34 205.598 882.796 208.492 885.708 204.215C904.812 204.215 924.715 201.364 940.107 214.498C950.027 210.005 956.81 208.104 964.586 202.141C975.178 198.944 985.354 196.395 995.882 206.246C1004.84 202.185 1010.51 196.438 1020.36 204.172C1028.87 206.332 1050.76 217.695 1063.88 210.35C1071.56 240.421 1089.03 269.411 1100.62 292.828C922.219 273.343 779.822 344.068 601.618 344.068C521.012 344.068 375.063 340.526 309.337 363.51C288.729 362.085 270.586 342.038 250.362 344.371C231.387 346.574 35.4548 394.315 -0.000366211 390.427V184.557C41.0867 166.152 85.1817 137.075 126.589 121.651Z" fill="url(#paint5_linear)"/>
<path d="M506.996 153.968C506.548 159.844 499.124 185.81 497.78 190.908C496.916 194.365 473.621 177.947 473.237 181.576C471.765 179.761 481.429 201.148 480.885 198.685L423.99 189.785C435.094 181.317 498.292 151.376 506.996 153.968Z" fill="#BAD2DB"/>
<path d="M125.021 147.963C122.717 153.147 121.053 158.937 119.421 164.64C109.885 175.355 117.565 163.862 116.605 163.43C114.749 169.954 111.485 171.034 108.605 175.354C108.797 185.205 110.493 194.321 111.005 203.999C108.861 197.821 104.189 194.149 100.605 191.47C96.5734 190.649 92.5415 185.464 88.6056 183.131C83.4857 184.471 78.7178 188.446 74.2059 191.47C72.926 189.915 72.094 187.884 71.006 186.112C48.5425 183.866 21.1511 181.792 0.127609 184.903C17.3112 180.021 122.685 118.368 126.717 122.775C128.253 127.397 129.181 136.6 125.021 147.963Z" fill="#7FA9D1"/>
<path d="M207.419 166.973C211.195 171.985 216.122 174.966 220.186 178.681C223.962 184.644 228.602 188.1 232.954 189.871C231.738 187.409 231.034 184.211 230.33 181.576C229.21 175.787 229.69 169.22 229.69 163.041C226.426 158.678 226.842 152.802 226.426 146.451C226.81 144.593 226.106 139.841 226.106 139.625C222.202 137.724 219.098 138.501 215.642 141.093C212.699 141.828 210.235 143.254 207.451 144.031C204.539 143.729 201.883 145.932 199.259 147.445C194.395 150.339 192.411 155.351 192.379 156.949C197.755 160.319 202.683 163.776 207.419 166.973Z" fill="#81CDE9"/>
<path d="M285.018 185.205C278.746 182.527 272.442 176.219 266.714 170.861C258.746 163.819 250.778 157.209 242.971 151.765C245.946 159.11 246.874 167.405 246.874 176.349C249.914 177.256 253.498 178.552 255.834 179.762C257.338 181.317 259.098 182.656 260.506 183.866C257.978 178.466 261.786 181.619 262.074 181.144C264.058 180.971 266.138 181.879 267.898 182.527C273.85 187.668 279.29 188.23 285.018 185.205Z" fill="#71A1CE"/>
<path d="M295.833 187.366C298.329 188.23 300.537 190.908 302.777 192.723C306.041 193.544 308.665 198.167 311.097 200.975C316.473 212.122 325.305 217.609 332.984 224.522C335.32 225.688 338.168 226.898 340.184 227.805C345.336 236.403 350.072 246.253 355.416 254.246C352.248 252.086 348.92 248.759 345.976 246.383C343.256 245.303 340.472 242.279 337.944 240.594C335.64 245.606 335.32 251.913 334.616 257.098C331.609 254.592 331.289 248.5 331.289 245.519C330.681 240.68 329.465 239.643 326.841 238.088C325.497 234.891 322.873 231.305 321.305 228.583C319.769 224.91 316.857 224.435 314.105 224.046C311.097 225.602 308.889 230.829 306.905 234.761C303.353 228.194 300.473 220.374 298.297 212.9C297.401 208.449 295.193 203.654 293.849 199.29C289.306 194.192 284.346 191.384 279.994 188.143C285.402 188.446 290.617 188.143 295.833 187.366Z" fill="#71A1CE"/>
<path d="M233.818 189.05C237.658 191.772 242.042 190.951 246.202 191.34C249.466 191.34 252.73 191.34 255.994 191.34C259.546 194.321 261.434 195.92 264.25 198.253C266.65 202.185 268.506 204.302 270.97 207.455C274.714 213.158 277.978 219.726 281.273 225.904C276.314 222.404 271.61 217.522 266.842 214.368C264.058 210.566 257.434 208.795 255.482 208.233C244.986 206.073 239.322 198.426 233.818 189.05Z" fill="#88B0D5"/>
<path d="M676.849 193.5C674.513 196.05 675.985 199.506 675.569 202.487C675.025 208.536 675.921 214.584 676.849 219.164C677.041 224.133 677.553 233.162 677.713 235.841C677.585 230.181 675.153 225.861 672.977 221.713C666.193 214.93 664.497 210.955 658.737 206.289C665.041 201.493 672.721 195.315 676.849 193.5Z" fill="#9CC6DD"/>
<path d="M578.387 169.651L573.779 182.915L566.995 203.74C564.275 199.376 560.435 194.364 558.483 189.18C557.363 186.674 546.067 175.959 545.619 173.713C549.235 169.565 573.939 170.299 578.387 169.651Z" fill="#90BCD9"/>
<path d="M424.759 316.806C419.447 306.48 412.887 297.71 407.191 288.032C400.087 280.514 390.999 276.151 383.48 271.701C377.272 268.071 369.976 261.202 364.184 258.61C358.136 250.314 351.32 242.926 345.304 235.063C342.425 224.867 334.457 218.084 329.945 212.856C333.689 214.887 337.881 217.09 341.785 219.38C346.616 222.534 343.833 196.309 348.664 197.734C350.392 201.277 357.592 231.434 357.592 235.711C362.168 241.414 367.32 246.167 372.088 250.098C375.032 255.801 372.984 242.797 377.208 245.692C380.888 241.501 391.191 250.271 393.591 244.871C393.943 241.976 401.655 224.089 401.655 224.089C401.751 230.786 464.054 254.548 465.014 260.424L425.783 264.442C433.046 268.676 423.159 277.576 429.591 281.983C435.958 290.667 435.414 299.136 441.43 306.956C451.126 310.455 460.182 318.275 470.39 321.343C455.99 314.171 438.902 323.157 424.759 316.806Z" fill="#6393C0"/>
<path d="M571.923 211.992C584.435 221.108 575.891 218.862 578.771 223.873C587.059 233.638 595.827 244.179 603.282 255.283C612.594 261.893 622.162 269.972 630.066 278.181C634.898 279.823 639.41 280.86 644.306 281.595C655.249 291.618 663.601 303.672 671.665 313.004C677.009 312.788 681.969 313.177 687.057 313.868C682.417 307.388 678.481 302.808 673.393 300.302C669.777 296.889 665.329 292.569 662.577 290.106H669.969C664.241 279.694 653.073 278.916 644.338 273.126C640.85 272.392 621.362 258.048 618.13 257.573C604.978 246.167 619.986 224.954 619.986 224.954C619.986 224.954 581.587 219.985 571.923 211.992Z" fill="#729DC7"/>
<path d="M644.657 202.185C638.833 201.45 634.737 204.95 631.986 208.665C629.906 210.826 628.21 213.418 626.514 216.053C623.986 219.596 620.594 221.368 617.618 222.966C615.922 220.115 613.234 219.553 611.122 218.343C602.034 208.536 590.93 216.615 580.691 217.436C588.882 213.591 597.234 210.005 605.33 206.332C609.106 206.332 612.85 206.332 616.626 206.332C626.29 204.388 636.017 203.351 644.657 202.185Z" fill="#90BCD9"/>
<path d="M489.045 218.775C493.621 241.155 486.901 231.866 484.533 246.167C476.629 245.606 472.181 254.506 466.518 258.351C466.838 248.457 470.07 236.835 471.03 230.959C470.39 216.831 460.118 207.845 455.254 197.476C471.158 202.747 475.637 208.709 489.045 218.775Z" fill="#7DACD3"/>
<path d="M723.504 283.582C723.76 283.193 729.231 273.083 731.919 272.219C733.775 274.034 735.151 276.065 736.655 277.879C738.767 277.534 740.847 276.929 742.959 276.453C752.687 281.854 762.095 293.217 769.743 301.296C773.71 305.444 779.182 307.301 783.406 309.807C777.294 307.863 771.535 304.753 765.551 302.722C759.887 303.111 755.599 298.229 751.887 294.21C748.815 292.439 747.087 294.599 744.527 295.636C742.927 295.939 741.359 294.686 739.791 294.21C738.127 303.111 741.647 311.363 743.471 320.479C741.327 313.393 737.679 307.647 734.543 302.03C732.879 299.481 732.399 296.241 731.375 293.519C727.248 290.236 726.192 287.73 723.504 283.582Z" fill="#93BDDA"/>
<path d="M585.938 276.583C572.435 288.119 569.683 299.222 563.411 316.115C555.987 323.158 546.291 310.974 543.123 310.023C548.659 305.746 544.627 299.87 545.363 294.815C563.699 285.829 570.643 284.835 585.938 276.583Z" fill="#82B3D4"/>
<path d="M189.564 182.181L271.866 247.031L280.506 236.533L277.914 262.196L278.778 299.525L293.466 301.858L313.337 278.527L312.473 311.19L328.377 321.948C327.033 320.133 325.753 318.232 324.537 316.115C325.209 314.733 339.128 285.31 351.576 282.632C356.152 284.403 383.704 301.296 396.631 300.864C404.631 313.22 411.479 327.132 421.431 337.372C390.071 345.84 352.152 353.228 329.017 322.769L268.41 320.436L34.1753 331.669L30.5594 219.596L96.9579 255.586L91.006 205.382L175.836 273.127L201.084 247.074L189.564 182.181Z" fill="url(#paint6_linear)"/>
<path d="M135.101 194.926L153.277 249.191L92.1259 209.27L97.3098 257.53L30.3353 220.374L18.1436 306.005L137.533 313.047L164.572 319.139L197.979 285.829L177.788 271.225L197.34 260.64L169.18 230.743L169.884 254.117L135.101 194.926Z" fill="#5481BE"/>
<path d="M543.124 325.232C537.396 315.683 541.62 304.926 540.884 294.816C535.508 288.335 547.156 277.879 547.636 276.54C537.876 276.54 528.116 276.54 518.356 276.54C513.397 297.71 530.548 306.697 531.892 310.024C520.724 309.764 517.204 315.986 509.365 319.14C498.421 311.061 500.629 299.525 495.829 288.724C486.357 317.541 477.013 320.868 462.038 334.348C492.821 348.13 520.916 338.582 543.124 325.232Z" fill="#6997C2"/>
<path d="M126.237 121.392C105.79 137.119 82.8142 161.529 65.4066 179.2C50.591 177.904 37.9192 176.175 22.5916 176.175C58.2388 150.123 88.9261 131.459 126.237 121.392Z" fill="#81CDE9"/>
<path d="M585.128 417.289H1439.99L1438.61 107.242C1425.08 107.242 1416.09 105.672 1404.76 95.6239C1398.13 93.7848 1393.17 90.0616 1385.4 92.7081C1372.82 95.8929 1364.69 102.038 1351.54 104.326C1346.26 100.244 1344.12 96.3415 1337.02 97.5527H1332.86C1330.78 94.637 1328.22 90.5103 1324.57 89.7926C1322.81 92.7083 1323.77 95.5343 1320.41 96.566C1314.55 91.0935 1308.73 83.4678 1301.75 79.1168C1300.5 79.1168 1296.06 81.4942 1292.76 79.1168C1288.09 77.5917 1283.86 76.6945 1279.64 72.3434C1271.74 64.0002 1264.47 57.8998 1255.45 51.9788C1251.07 47.8969 1246.87 44.3083 1240.92 43.2766C1238.17 43.5906 1235.35 43.5905 1232.63 44.2633C1223.35 45.5642 1213.59 49.6909 1204.28 46.1921C1197.72 39.2843 1190.46 28.9674 1182.84 23.8987H1168.32C1167.39 24.9752 1163.68 30.7167 1160.03 33.5875C1149.56 33.5875 1139.77 30.1336 1128.92 31.6587C1125.63 27.0385 1122.88 22.7322 1118.56 18.112C1111.23 17.9326 1110.81 23.3604 1104.09 29.1917C1099.39 24.7509 1098.75 23.6296 1092.99 20.0411C1086.01 12.4155 1080.64 8.46811 1074.33 2.59193C1065.5 0.528544 1060.41 5.55249 1054.3 9.36528C1054.08 12.7744 1051.97 14.6134 1050.85 17.1253C1046.05 18.6504 1037.69 17.1253 1034.94 17.1253C1030.62 16.2731 1029.21 19.5924 1025.95 20.9829C1020.8 21.88 1015.33 22.194 1010.05 22.9117C1006.24 25.0648 1005.69 28.3842 1003.13 31.6138H994.847C989.791 31.883 987.167 34.7989 983.775 37.4454H970.656C965.056 45.7886 958.656 50.7227 953.376 52.9655C951.168 54.4009 943.84 53.9076 943.712 53.9525C937.28 56.3298 928.353 66.5122 923.681 70.4146C908.481 80.1036 910.721 80.1035 908.481 80.1035C893.601 91.2727 888.578 101.096 873.218 113.028C852.738 130.253 832.675 141.646 817.219 145.953C805.315 171.386 774.5 190.764 754.309 199.242C685.766 271.012 566.409 310.665 517.258 352.022L585.128 417.289Z" fill="#6698CF"/>
<path d="M976.863 154.565C967.487 150.125 956.768 128.28 955.776 126.979C935.648 106.883 917.185 135.457 900.929 150.618C877.985 168.112 862.338 161.608 853.122 193.994C870.978 196.91 879.969 185.157 893.889 174.302C895.681 179.954 892.929 184.933 892.481 190.092C901.825 179.461 907.393 169.951 916.385 160.531C919.169 174.347 915.969 178.922 913.569 190.092C921.281 182.152 924.64 170.938 927.616 160.531C908.257 268.321 976.863 173.854 976.863 154.565Z" fill="#6692BF"/>
<path d="M1156.86 30.3581C1148.48 29.6404 1141.02 31.2104 1132.96 32.3318C1126.24 20.4898 1123.04 23.7194 1113.28 22.4634C1111.68 43.0524 1095.55 42.6937 1083.74 50.0501C1082.78 61.3091 1086.14 55.7018 1087.96 59.9183C1079.58 70.6838 1073.09 72.2538 1062.65 73.7341C1049.34 87.505 1035.33 95.7138 1023.26 97.3735C1018.4 99.2126 1014.11 108.587 1010.59 115.136C1005.15 122.224 992.767 127.876 990.911 128.952C993.951 131.554 997.471 132.9 1000.77 134.873C987.615 153.309 981.791 156.898 967.008 168.381C944.512 185.516 941.632 194.757 931.84 225.528C942.592 234.903 952.832 230.686 964.192 227.502C977.503 202.023 986.623 194.442 1004.96 184.125C1004.8 171.969 1010.3 158.513 1012 150.618C1020.89 142.23 1031.26 139.314 1040.13 136.802C1035.61 154.879 1031.52 171.925 1021.85 190.046C1040.99 191.123 1050.27 168.246 1059.84 156.539C1061.66 145.325 1072 130.522 1073.89 126.979C1092.67 103.205 1059.93 132.81 1047.17 140.794C1066.14 123.256 1071.77 114.688 1083.74 89.5236C1089.05 35.1578 1134.52 66.1535 1156.86 30.3581Z" fill="#6692BF"/>
<path d="M1145.6 93.4712C1135.52 112.445 1120.76 130.253 1113.24 144.742C1106.65 156.629 1094.97 165.106 1090.75 168.381C1080.19 180.627 1070.85 184.081 1061.21 190.047C1045.21 217.633 1017.12 225.169 1002.14 253.115C1014.56 254.281 1027.33 255.851 1038.72 259.036C1057.34 244.323 1073.44 218.71 1089.34 203.818C1115.42 169.099 1129.85 133.214 1145.6 93.4712Z" fill="#6692BF"/>
<path d="M1071.2 2.14331C1072.19 2.18816 1073.24 2.3229 1074.33 2.59204C1080.64 8.46821 1086.04 12.4156 1092.99 20.0412C1098.75 23.6297 1099.39 24.751 1104.09 29.1918C1104.57 28.7881 1104.96 28.3843 1105.37 27.9806C1105.88 28.8777 1106.4 29.7302 1106.91 30.403C1085.28 29.2816 1074.11 50.0948 1061.21 65.8842C1058.4 85.6659 1048.45 89.6134 1035.9 101.366C1028 97.5978 1025.15 99.0332 1017.63 97.4183C1006.49 105.313 994.623 123.031 990.911 128.952C977.951 135.411 965.247 128.414 957.152 125.005C949.024 122.852 941.92 126.126 934.656 126.978C903.201 159.903 868.13 180.178 830.594 195.968C811.427 192.872 796.131 188.297 784.227 182.466C797.699 172.822 810.467 160.396 817.187 145.998C832.642 141.646 852.674 130.298 873.185 113.073C888.545 101.097 893.569 91.2729 908.449 80.1485C910.689 80.1485 908.449 80.1486 923.648 70.4597C928.32 66.5123 937.248 56.3746 943.68 53.9972C943.84 53.9972 951.168 54.4459 953.344 53.0105C958.624 50.7677 965.023 45.8334 970.623 37.4901H983.743C987.103 34.8884 989.759 31.9728 994.815 31.6588H1003.1C1005.66 28.4292 1006.21 25.0649 1010.01 22.9567C1015.29 22.239 1020.77 21.925 1025.92 21.0279C1029.15 19.6374 1030.56 16.3181 1034.91 17.1703C1037.66 17.1703 1045.98 18.6954 1050.81 17.1703C1051.93 14.6584 1054.05 12.8194 1054.27 9.41028C1059.65 6.04606 1064.22 1.78446 1071.2 2.14331Z" fill="#84AACB"/>
<path d="M1179.1 68.1997C1175.1 70.1285 1172.63 73.8067 1170.07 77.6643C1171.16 78.6512 1172.06 79.3242 1172.89 80.0419C1173.31 82.7332 1173.18 85.5591 1173.18 88.3402C1171.51 91.9735 1169.75 93.678 1166.97 95.8311C1168.86 98.2085 1171.03 97.9393 1173.47 98.6122C1174.55 96.7731 1175 94.7548 1175.45 92.6914C1176.03 90.8971 1177.15 91.1213 1177.98 90.3139C1178.2 87.6673 1177.62 85.8731 1177.15 83.5854C1176.25 76.4533 1176.86 72.147 1179.96 67.7959L1179.1 68.1997Z" fill="#BAD2DB"/>
<path d="M1143.83 140.912C1146.68 134.901 1149.63 127.724 1153.69 121.175C1154.91 120.906 1156.09 120.681 1157.37 120.367C1158.07 114.446 1159.71 109.512 1163.29 105.34C1166.71 106.058 1169.31 106.462 1172.6 108.122C1169.82 111.531 1169.37 115.029 1168.67 119.964C1165.56 120.816 1164.03 123.104 1162.75 125.481C1160.51 126.961 1159.87 128.083 1158.52 130.639C1158.52 134.99 1158.52 139.342 1158.52 143.693C1150.78 146.608 1144.19 141.36 1143.83 140.912Z" fill="#BAD2DB"/>
<path d="M1143 159.078C1144.03 155.086 1144.99 151.273 1147.23 147.999C1145.85 145.442 1144.99 145.756 1143 145.218C1138.65 149.165 1135.58 156.163 1132.57 159.841C1124.12 169.934 1118.3 182.763 1111.71 194.605C1116.09 188.908 1120.15 185.903 1125.79 184.333C1127.39 178.636 1130.71 173.343 1133.95 169.306C1134.14 173.118 1134.23 176.886 1134.23 180.744C1138.55 177.335 1142.84 174.419 1146.65 170.876C1149.11 161.59 1153.88 152.215 1157.66 145.173C1154.97 147.505 1153.18 148.941 1150.33 150.69C1147.45 154.144 1146.27 157.06 1143 159.078Z" fill="#BAD2DB"/>
<path d="M1154.55 47.2518C1149.15 51.6477 1145.31 59.8563 1141.31 65.4185C1143 65.6876 1145.08 65.1941 1146.39 65.0147C1149.69 60.6188 1151.8 55.1463 1153.72 51.5578C1153.82 49.4047 1154.46 47.6553 1154.84 45.6367L1154.55 47.2518Z" fill="#BAD2DB"/>
<path d="M1156.54 67.2575C1153.43 60.7085 1151.61 69.904 1149.79 74.8382C1145.66 78.6959 1142.14 89.0576 1139.35 99.7334C1142.07 99.7334 1144.79 99.7334 1147.51 99.7334C1152.09 93.6778 1153.82 81.2078 1156.54 67.2575Z" fill="#BAD2DB"/>
<path d="M1129.75 125.077C1126.62 124.629 1123 127.589 1120.15 129.429C1110.04 137.099 1101.72 153.068 1094.49 164.596C1097.47 164.192 1101.21 159.213 1102.65 157.867C1106.36 155.759 1109.02 153.068 1112.25 150.376C1114.62 146.429 1117.02 141.271 1119 138.131C1122.43 131.671 1125.27 128.217 1129.75 125.077Z" fill="#BAD2DB"/>
<path d="M1095.07 123.104C1092.09 124.181 1089.82 125.975 1087.16 127.455C1082.81 132.389 1079.83 138.894 1075.61 144.859C1070.59 149.839 1065.08 153.247 1060.96 157.913C1065.85 153.203 1072.12 152.171 1077.59 150.78C1080.09 146.519 1083.29 143.2 1085.75 139.701C1086.3 137.054 1087.55 134.901 1088.57 132.972C1090.84 128.801 1092.7 126.423 1095.07 123.104Z" fill="#BAD2DB"/>
<path d="M1112.28 72.147C1108.95 78.382 1106.62 81.9704 1101.79 86.0523C1091.99 108.436 1079.26 126.737 1065.66 141.629C1072.28 142.616 1080.54 137.009 1084.31 135.08C1091.1 129.428 1095.83 120.906 1100.06 113.011C1100.76 105.116 1103.8 96.6834 1105.88 90.1344C1106.71 83.3162 1109.98 77.9334 1112.28 72.147Z" fill="#BAD2DB"/>
<path d="M1118.2 20.7866L1109.75 32.6288C1104.31 39.6263 1097.15 43.5736 1092.83 49.6292C1093.02 51.872 1091.64 53.4869 1090.84 54.7878C1084.51 56.9857 1078.43 60.664 1072.51 61.5162C1074.27 55.1018 1079.99 52.0066 1083.77 49.6741C1087.42 45.4576 1091.67 41.8692 1094.78 38.5947C1097.5 34.2885 1100.95 31.6419 1104.09 28.7263C1108.86 23.4781 1116.25 20.7866 1118.2 20.7866Z" fill="#C9C8CA"/>
<path d="M1072.25 70.1732C1069.4 72.9991 1064.38 77.1706 1062.4 79.2789C1059.32 80.8937 1055.9 80.804 1052.8 81.2526C1054.52 78.3818 1056.6 77.2157 1058.43 75.3318C1060.41 71.6535 1062.36 70.2181 1064.35 67.437C1067.26 67.4819 1069.79 68.6032 1072.25 70.1732Z" fill="#BAD2DB"/>
<path d="M1076.48 95.0684C1072.41 98.7466 1068.41 101.887 1064.06 103.77C1061.76 106.103 1061.08 108.211 1060.12 111.261C1056.73 112.159 1054.08 114.312 1051.39 116.016C1047.48 122.924 1044.54 130.37 1042.08 136.56C1046.78 131.133 1051.55 126.378 1056.73 122.745C1061.12 121.04 1064.38 115.926 1066.33 112.069C1071.16 107.673 1072.92 100.047 1076.48 95.0684Z" fill="#BAD2DB"/>
<path d="M1053.37 172.132C1050.17 173.792 1047.23 177.829 1044.64 180.43C1043.58 182.718 1043 184.871 1042.11 187.159C1039 188.998 1035.32 192.721 1032.51 196.623C1037.12 194.381 1041.37 192.586 1045.47 190.299C1046.33 187.203 1048.54 181.731 1048.86 180.834C1050.49 177.559 1051.93 175.137 1053.37 172.132Z" fill="#BAD2DB"/>
<path d="M1026.88 202.948C1025.85 206.851 1024.03 210.619 1021.79 214.387C1025.31 211.65 1028.54 210.664 1032.8 210.439C1037.56 207.748 1044.16 200.167 1049.98 196.623C1056.64 192.497 1061.92 181.776 1069.15 178.053C1074.75 174.778 1080.89 173.208 1086.91 172.536C1080.22 180.027 1074.04 184.961 1066.62 188.729C1062.11 199.135 1055.1 204.204 1049.15 210.484C1043.39 209.901 1037.53 214.117 1033.37 217.616C1027.64 221.519 1021.28 227.843 1015.9 232.643C1010.65 237.487 1004.61 245.023 1000.13 248.432C993.533 246.01 986.557 242.646 980.126 239.327C986.973 236.232 993.501 235.29 1000.41 231.432C1003.84 227.395 1006.69 224.21 1008.73 220.98C1013.66 215.329 1019.04 205.595 1026.88 202.948Z" fill="#E7E0E2"/>
<path d="M1078.75 7.32948C1075.8 10.9628 1073.21 15.0896 1070.59 18.7678C1067.87 21.4143 1065.05 23.433 1062.43 25.0927C1058.14 30.8343 1053.82 36.8001 1050.01 42.0931L1044.92 43.663C1049.85 32.1798 1058.17 18.4987 1066.62 13.2505C1064.67 11.9497 1060.48 12.4432 1059.29 12.4432C1056.25 15.314 1052.86 19.5304 1050.56 21.9078C1047.84 27.784 1043.36 30.6547 1039 33.3461C1033.4 37.6074 1028.12 38.2804 1022.08 41.6447C1017.31 46.534 1013.31 51.199 1008.54 53.8904C1011.39 47.6105 1014.68 42.0933 1018.14 38.8636C1020.54 37.9665 1023.84 35.4994 1025.47 34.1088C1029.21 30.5652 1031.55 24.1059 1033.63 18.6783C1039.23 18.9922 1044.7 18.2744 1050.27 18.2744C1052.25 14.6411 1053.95 11.5459 1055.07 8.40598C1060.99 3.29237 1066.3 1.3635 1072.54 0.51123C1078.43 1.09436 1078.43 5.13152 1078.75 7.32948Z" fill="#BAD2DB"/>
<path d="M969.086 123.508C980.445 114.671 987.709 101.169 999.517 89.9103C1002.27 87.7572 1003.96 86.4562 1007.13 86.3665C1008.67 83.4957 1010.2 80.1315 1011.07 75.6907C1012.48 75.8701 1014.62 76.5878 1016.41 75.6907C1017.76 73.2236 1020.03 70.3528 1022.04 67.7959C1019.93 64.4317 1017.37 62.7272 1018.36 57.1201C1019.96 54.6082 1022.52 50.1675 1025.4 49.6292C1026.52 49.7638 1027.45 49.6293 1028.51 50.033C1027.1 53.3524 1024.41 57.2998 1023.16 61.8752C1023.71 63.0414 1023.68 64.701 1024.86 65.4187C1027.8 61.7405 1031.45 55.5053 1035.87 54.3391C1039.45 52.4999 1042.97 50.7954 1046.59 49.5843C1039.58 56.851 1033.66 64.9701 1028 72.9096C1024.51 77.4401 1020 81.6118 1016.99 84.7518C1001.53 97.5358 984.125 116.465 969.63 126.647C967.71 126.603 968.446 128.845 967.934 129.787C963.55 130.595 960.062 128.173 956.382 126.647C955.486 124.315 954.334 122.745 953.278 120.727C948.318 120.996 942.814 121.444 937.758 120.727C939.038 113.011 947.326 111.845 951.294 107.673C951.646 105.789 951.838 104.309 952.126 102.515C962.078 96.6836 970.878 83.7199 978.045 73.6721C982.941 66.0914 986.845 56.5372 990.717 48.3734C997.629 42.542 1002.59 33.8398 1009.05 27.8291C1004.09 39.6263 999.933 53.2178 993.277 62.5927C989.245 62.9067 987.293 67.8858 984.829 70.4875C981.629 77.5748 976.189 83.6753 973.278 91.0318C977.533 87.8021 981.405 83.3163 984.829 79.5932C989.405 72.2367 994.365 65.6429 1001.18 61.4264C998.813 65.2841 997.661 70.0839 996.093 74.4798C985.981 84.5724 976.221 94.3063 968.766 109.243C971.198 109.109 972.35 107.225 974.109 106.103C978.877 91.3008 989.277 86.546 997.501 78.8307C994.621 92.1979 985.693 94.979 980.573 102.156C977.309 107.718 972.67 113.549 969.022 116.375C969.086 118.753 969.086 121.13 969.086 123.508Z" fill="#CEE5ED"/>
<path d="M1027.42 91.8838C1024 92.1081 1016.8 96.0108 1015.29 96.6388C1012.8 101.887 1009.31 104.758 1006.27 108.077C1000.06 116.241 992.413 118.394 986.813 126.244C993.757 126.199 999.133 122.745 1004.28 119.515C1006.49 118.215 1008.76 117.407 1010.78 117.138C1013.15 113.684 1016.41 110.813 1018.94 108.032C1021.95 100.541 1024.03 96.6386 1027.42 91.8838Z" fill="#BAD2DB"/>
<path d="M1012.76 120.727C1011.23 120.458 1007.23 121.489 1007.13 121.534C1002.4 123.104 998.045 126.648 994.461 129.429C993.405 131.268 992.349 133.107 991.357 134.946C994.653 133.69 999.165 131.358 1000.96 130.595C1002.78 129.563 1002.36 131.358 1003.2 131.761C1005.37 130.371 1006.97 128.487 1008.54 127.007C1010.46 124.36 1011.23 123.194 1012.76 120.727Z" fill="#BAD2DB"/>
<path d="M1038.97 104.129C1035.52 108.032 1032.51 114.132 1030.81 119.56C1026.24 125.257 1021.53 126.827 1019.26 132.613C1022.62 129.249 1026.14 128.845 1029.69 127.858C1031.45 122.117 1034.52 118.932 1036.73 114.805C1039.64 110.903 1043 107.045 1045.34 104.129H1038.97Z" fill="#BAD2DB"/>
<path d="M1007.42 179.623C1001.63 181.507 996.829 186.8 991.357 189.088C990.045 196.803 983.901 201.782 979.805 206.088C983.581 205.684 986.781 204.698 990.237 203.711C994.173 199.27 996.733 194.47 998.685 189.491C1001.34 185.678 1004.41 182.763 1007.42 179.623Z" fill="#BAD2DB"/>
<path d="M980.638 211.247C978.686 211.83 975.134 214.028 974.43 214.387C971.454 218.199 969.694 222.236 967.39 225.466C964.35 226.812 961.31 229.817 959.23 231.791C961.726 233.405 965.214 232.329 967.134 231.791C971.934 227.574 974.142 223.537 975.582 216.764C977.63 214.386 978.75 213.22 980.638 211.247Z" fill="#BAD2DB"/>
<path d="M977.821 37.4731C978.717 38.3703 979.645 39.2224 980.541 40.1644C975.773 45.0538 970.813 48.1936 965.405 50.4813C960.925 65.8222 948.222 73.986 940.03 85.4692C931.486 90.9416 923.806 92.422 915.07 91.2109C912.735 90.4932 910.591 92.2427 908.511 93.4986C907.007 99.5542 903.743 104.264 901.151 108.391C890.079 118.663 875.295 121.04 866.368 135.349C863.552 136.874 860.832 137.637 857.792 138.803C855.456 147.326 848.928 152.216 845.12 158.316C854.816 158.361 864.32 160.02 873.759 160.02C879.935 153.023 887.423 150.332 893.791 145.128C909.951 141.854 921.918 128.756 937.15 121.623C931.23 134.946 919.422 135.933 911.775 143.962C911.359 150.646 909.791 156.297 908.095 160.603C899.903 160.873 891.551 162.174 884.351 165.179C878.463 165.897 872.159 165.358 867.168 167.467C864.608 170.921 862.272 175.855 860.64 178.95C856.288 178.277 850.08 179.398 847.552 180.116C852.352 181.641 857.088 183.48 861.856 184.108C871.071 177.201 876.799 171.1 887.615 168.05C880.031 170.651 875.967 181.507 870.847 188.684C862.112 190.029 852.768 189.222 844.672 188.1C840.704 188.908 837.248 192.811 834.432 195.008C840.032 194.022 840.48 194.38 848.736 197.879C831.264 202.096 815.521 193.483 800.449 189.267C799.297 189.312 728.195 230.983 717.955 230.265C734.051 220.128 809.153 163.071 817.121 145.981C832.576 141.63 852.608 130.281 873.119 113.056C888.479 101.079 893.503 91.2559 908.383 80.0866C910.623 80.0866 908.383 80.0865 923.582 70.3975C928.254 66.4502 937.182 56.3127 943.614 53.9353C943.774 53.9353 951.102 54.3838 953.278 52.9933C958.557 50.7504 964.957 45.8164 970.557 37.4731H977.821Z" fill="#D4E2E8"/>
<path d="M1006.75 140.015C1003.2 150.556 995.101 151.094 990.045 156.432C988.797 153.516 989.437 153.516 988.925 150.96C982.462 153.472 977.758 159.706 971.102 163.474C973.022 164.192 974.302 164.955 976.126 165.807C973.726 176.169 968.734 179.219 963.326 183.75C963.134 182.718 962.942 181.686 962.782 180.61C957.534 180.968 956.638 185.32 952.766 190.747C951.294 189.132 950.526 186.575 949.438 184.512C938.591 196.175 928.319 207.478 918.239 218.109C923.967 220.307 841.697 281.491 844.865 285.394C853.056 284.497 945.662 218.558 951.102 211.874C954.206 209.048 953.598 205.864 955.006 202.499C962.846 199.988 965.79 193.08 969.502 183.75C974.238 177.066 978.878 175.406 982.878 174.374C983.262 171.638 984.349 169.171 985.117 166.57C986.109 168.319 986.973 170.203 987.901 172.042C998.909 166.704 1003.87 154.728 1006.75 140.015Z" fill="#BAD2DB"/>
<path d="M1390.77 91.8115C1395.77 91.8115 1399.8 94.2337 1404.76 95.6242C1416.12 105.672 1425.08 107.242 1438.61 107.242L1439.99 417.289H1426.87C1416.37 407.151 1408.25 387.145 1398.04 371.266C1376.57 337.803 1365.43 345.743 1387.29 310.934C1381.56 284.11 1368.34 260.471 1353.59 239.568C1373.94 255.402 1397.91 278.1 1423.86 281.778C1408.98 260.92 1394.97 234.275 1383.7 207.406C1387.29 209.245 1391.03 209.784 1394.45 211.443C1389.65 201.306 1383.7 190.63 1375.8 184.305C1368.69 172.912 1360.7 165.017 1352.86 154.162C1365.24 159.365 1383.54 162.191 1367.19 137.071C1354.74 131.24 1347.77 134.335 1342.81 116.976C1334.33 109.036 1323.13 105.672 1313.4 96.8803C1315.22 96.3869 1317.11 95.7586 1318.97 95.2204C1319.45 95.6689 1319.93 96.2072 1320.41 96.6558C1322.07 96.1175 1322.68 95.1757 1323.06 93.9645C1324.82 93.3814 1326.65 92.7982 1328.44 92.1702C1330.14 93.785 1331.61 95.8933 1332.82 97.5979H1336.98C1344.06 96.3868 1346.23 100.289 1351.51 104.371C1364.69 102.084 1372.82 95.9381 1385.37 92.7533C1387.35 92.0356 1389.11 91.8115 1390.77 91.8115Z" fill="#5585A8"/>
<path d="M1356.66 199.359C1348.02 186.441 1347.09 176.573 1344.95 172.805C1341.17 158.181 1332.76 156.387 1324.89 147.82C1322.39 138.176 1315.77 125.302 1313.17 120.502H1307.61C1298.55 111.576 1291.83 102.919 1289.78 88.4748C1281.56 65.7327 1265.14 63.0412 1250.78 54.1147C1257.62 61.1572 1264.82 72.0573 1268.6 79.0997C1268.6 81.2977 1267.86 82.1947 1267.48 83.7647C1264.54 84.6618 1262.94 82.6883 1260.79 82.1948C1260.34 87.0842 1260.44 92.1081 1260.79 97.0423C1266.52 98.7019 1271.38 99.4646 1276.41 100.182C1286.55 103.232 1294.65 109.961 1302.58 119.695C1298.84 123.059 1299.8 126.334 1299.8 132.21C1303.7 140.957 1309.27 149.614 1314.84 156.432C1315.67 161.725 1312.37 167.332 1312.05 168.139C1315.25 185.589 1325.97 199.404 1330.45 215.014C1330.97 201.692 1331.93 184.961 1329.33 172.85C1332.66 171.055 1335.32 172.894 1338.26 173.612C1341.17 186.396 1350.87 191.24 1356.66 199.359Z" fill="#5585A8"/>
<path d="M1214.58 165C1208.38 159.168 1203 149.614 1198.97 142.347C1194.94 133.6 1190.49 124.718 1187.26 116.555C1181.72 112.338 1177.34 108.212 1173.34 103.277C1178.65 115.613 1182.39 127.231 1187.83 139.207C1198.55 156.791 1207 176.169 1216.79 197.79C1214.74 184.602 1209.62 176.842 1206.78 163.43C1210.52 167.556 1210.55 165.583 1214.58 165Z" fill="#5585A8"/>
<path d="M1209.56 204.832C1202.36 195.681 1195.13 183.211 1189.5 173.567C1183.74 167.556 1180.73 159.751 1177.24 150.915C1172.03 145.038 1167.87 140.912 1163.87 135.305C1167.07 142.033 1168.67 148.134 1171.1 153.247C1165.91 150.287 1163.58 147.281 1159.39 144.635C1159.71 147.102 1160.12 149.345 1160.51 151.677C1178.52 164.102 1201.56 202.589 1209.56 204.832Z" fill="#5585A8"/>
<path d="M1180.6 27.5149C1180.47 35.3199 1180.83 43.1699 1181.15 50.9301C1180.03 54.6531 1179.16 58.1071 1178.36 61.875C1199.1 79.0101 1209.11 101.976 1216.79 118.125C1219.45 126.603 1222.23 133.151 1224.02 141.54C1239.99 156.836 1246.2 182.763 1259.13 200.885C1267.13 209.542 1271.06 216.18 1274.74 229.009C1273.97 233.405 1271.19 234.572 1269.72 236.815C1257.91 245.248 1296.79 271.04 1304.82 276.647C1298.26 263.728 1291.67 251.303 1286.42 241.48C1283.29 233.136 1279.67 226.677 1276.95 218.064C1273.88 217.122 1275.83 213.848 1275.29 211.83C1267.51 201.916 1260.95 192.003 1256.89 180.565C1246.39 166.973 1240.22 144.366 1236.28 125.885C1242.74 129.563 1247.67 136.516 1251.32 143.065C1245.43 120.592 1225.08 113.549 1216.22 96.9973C1217.59 91.0314 1220.92 88.3401 1224.02 84.4825C1234.42 100.317 1260.63 121.22 1269.72 137.592C1256.25 111.845 1236.7 91.4353 1229.59 79.7726C1210.65 70.5322 1199.13 19.7548 1180.6 27.5149Z" fill="#5585A8"/>
<path d="M1298.71 172.042C1290.68 162.219 1283.96 146.878 1274.2 140.777C1277.37 149.704 1280.31 158.496 1284.22 165.762C1297.05 182.449 1307.99 202.993 1319.03 217.706C1312.63 199.719 1307.38 182.987 1298.71 172.042Z" fill="#5585A8"/>
<path d="M1314.87 227.485C1301.69 213.624 1291.64 198.822 1280.31 182.942C1282.81 193.394 1286.68 200.122 1288.66 209.497C1284.12 205.64 1280.09 201.109 1275.86 197.79C1287.96 220.891 1289.88 246.863 1307.06 260.275C1307.96 266.33 1306.36 270.636 1305.4 275.122C1323.29 296.608 1346.65 303.785 1363.35 321.997C1350.07 308.047 1336.79 291.405 1325.46 279.025C1319.29 269.201 1314.74 259.602 1309.85 249.33C1310.81 245.786 1310.23 242.063 1310.39 238.385C1318.55 244.351 1326.17 256.103 1328.21 261.037C1322.42 250.047 1319.32 238.116 1314.87 227.485Z" fill="#5585A8"/>
<path d="M1347.73 246.997C1336.34 240.807 1330.9 228.068 1322.65 216.54C1321.53 226.049 1324.82 232.777 1327.09 240.762C1334.52 246.459 1337.3 252.066 1340.47 261.844C1348.21 267.317 1353.3 276.737 1359.41 285.259C1356.18 272.206 1351.25 257.762 1347.73 246.997Z" fill="#5585A8"/>
<path d="M1271.71 156.718C1270.71 166.945 1268.09 165.062 1262.87 169.099C1270.68 186.951 1276.09 210.097 1280.54 224.092C1261.02 182.914 1227.8 156.225 1241.82 122.358C1251.39 137.251 1262.59 143.889 1271.71 156.718Z" fill="#5585A8"/>
<path d="M1199.22 235.99C1172.11 212.013 1175.19 214.217 1161.15 202.625C1134.72 189.315 1124.55 194.031 1111.88 189.447C1106.54 190.99 1101.37 193.546 1096.92 198.571C1105.06 199.408 1106.78 202.361 1113.86 204.653C1126.02 204.212 1141.67 206.724 1148.86 211C1162.66 219.197 1166.32 226.426 1176.93 228.012L1199.22 235.99Z" fill="#5481AC"/>
<path d="M1440 415.68C1418.7 394.348 1394.02 373.986 1372.65 358.692C1332.76 339.564 1299.34 304.745 1257.19 284.383C1240.86 272.968 1230.59 258.335 1216.79 248.463C1210.35 239.472 1204.22 237.444 1197.55 233.61C1187.24 232.904 1180.77 225.191 1173.48 219.991C1166.05 216.332 1159.61 209.281 1154.23 203.904C1148.65 205.49 1144.37 202.626 1139.78 201.436C1131.46 199.144 1124.82 197.733 1115.71 197.733C1110.1 197.204 1109.24 194.692 1105.13 192.797C1091.16 199.893 1081.95 208.443 1065.69 212.63C1053.19 225.941 1038.91 231.494 1027.2 239.868C1023.13 243.791 1018.61 247.229 1014.71 251.019C993.579 272.792 977.898 292.449 957.936 311.709C973.344 315.896 989.984 315.191 1001.25 321.626C1006.76 317.439 1012.55 318.629 1018.57 317.924C1038.5 316.469 1055.59 314.221 1076.3 314.221C1083.77 315.411 1093.08 323.609 1095.55 325.372C1099.72 324.138 1103.25 327.047 1107.09 327.84C1110.27 335.157 1118.18 337.713 1123.45 341.459C1134.44 346.44 1145.4 347.938 1154.23 351.376C1162.01 353.535 1169.54 360.808 1175.39 364.995C1198.23 364.378 1222.88 364.775 1243.7 367.463C1268.08 373.545 1294.82 383.506 1313.96 397.169C1319.85 406.821 1325.91 410.568 1335.12 414.49C1350.02 413.653 1363.44 419.426 1378.44 419.426C1398.78 418.325 1422.06 422.6 1440 415.68Z" fill="#6E94B2"/>
<path d="M1162.14 211.705C1165.6 214.922 1169.37 217.963 1173.44 219.991C1180.74 225.191 1187.21 232.904 1197.51 233.61C1204.19 237.444 1210.32 239.471 1216.76 248.463C1230.59 258.335 1240.83 272.968 1257.16 284.383C1299.31 304.745 1332.73 339.564 1372.62 358.692C1393.98 373.986 1418.7 394.304 1439.97 415.68C1422.03 422.6 1398.74 418.325 1378.37 419.382C1363.37 419.382 1349.98 413.609 1335.09 414.446C1325.88 410.479 1319.82 406.733 1313.93 397.081C1294.79 383.418 1268.05 373.457 1243.67 367.375C1222.85 364.686 1198.16 364.29 1175.36 364.907C1169.95 361.028 1163.1 354.593 1155.98 351.905C1154.03 346.395 1152.42 340.842 1151.29 335.157C1139.89 330.749 1131.84 323.874 1118.59 326.474C1104.86 308.8 1080.55 301.528 1056.03 301.704L1070.48 265.784C1069.46 265.784 1059.56 266.797 1056.03 263.316C1056.2 262.963 1062.37 252.561 1063.74 247.228C1068.09 246.655 1073.15 245.862 1077.23 243.526C1078.91 240.573 1084.79 236.695 1084.93 229.907H1095.51C1090.55 244.011 1093.77 223.208 1090.68 243.526H1106.09C1122.19 232.023 1134.03 215.01 1155.16 213.82C1157.38 212.983 1159.75 212.322 1162.14 211.705Z" fill="#5481BE"/>
<path d="M1067.54 211.969C1068.39 219.506 1072.23 225.192 1075.31 232.376C1063.36 238.105 1051.99 252.43 1044.53 260.848C1034.46 269.134 1022.51 277.287 1016.62 280.681C1027.99 283.898 1037.89 281.827 1046.45 275.745C1050.35 275.701 1052.92 273.232 1056.07 272.042C1053.7 285.573 1043.88 288.791 1032 291.876C1025.87 297.738 1024.19 303.688 1021.42 311.709C1040.83 305.318 1054.59 301.793 1074.35 301.793C1093.35 299.413 1107.43 310.696 1120.54 319.158C1118.73 324.447 1115.78 329.427 1111.91 334.055C1109.93 332.38 1108.18 330.441 1107.05 327.841C1103.22 327.003 1099.69 324.138 1095.51 325.372C1093.05 323.609 1083.73 315.412 1076.27 314.222C1055.55 314.222 1038.47 316.469 1018.54 317.924C1012.55 318.629 1006.76 317.439 1001.21 321.626C989.95 315.191 878.669 340.666 863.261 336.523C883.223 317.219 993.545 272.836 1014.67 251.063C1018.57 247.273 1023.13 243.835 1027.17 239.912C1038.88 231.538 1053.16 225.985 1065.65 212.675C1066.34 212.366 1066.92 212.146 1067.54 211.969Z" fill="url(#paint7_linear)"/>
<path d="M1188.85 317.835C1169.98 315.279 1167.04 302.365 1162.86 284.383C1152.59 284.251 1143.55 280.108 1135.92 275.7C1123.66 264.682 1115.41 257.586 1106.09 250.931C1100.79 251.415 1096.74 252.121 1091.64 253.399C1098.87 259.525 1105.68 266.533 1111.84 274.466C1112.19 280.284 1112.87 286.102 1113.76 291.788C1116.47 290.906 1119.34 293.595 1121.47 294.256C1125.75 289.055 1123.18 284.691 1124.34 278.169C1129.03 282.356 1133.72 284.559 1137.8 288.085C1136.16 296.239 1139.65 302.145 1140.67 306.685C1146.08 312.679 1159.61 315.852 1162.79 316.601C1171.35 318.497 1180.19 317.835 1188.85 317.835Z" fill="#5F8BCB"/>
<path d="M1090.72 315.323C1113.04 321.053 1137.76 314.706 1159.99 322.772H1196.55C1228.74 330.308 1267.4 351.596 1289.89 382.228C1289.41 382.404 1288.93 382.537 1288.49 382.713C1274.18 376.19 1258.53 371.033 1243.7 367.331C1222.88 364.642 1198.2 364.246 1175.39 364.863C1169.54 360.676 1162.01 353.403 1154.23 351.244C1145.4 347.85 1134.41 346.308 1123.45 341.327C1118.18 337.581 1110.27 335.024 1107.09 327.708C1105.24 327.311 1103.49 326.43 1101.68 325.769C1101.57 325.593 1101.44 325.416 1101.3 325.196C1097.6 321.802 1095.41 318.673 1090.72 315.323Z" fill="#7DA4CD"/>
<path d="M1110.93 223.693C1112.3 215.627 1115.65 208.311 1118.63 201.391C1132.12 198.086 1145.82 207.606 1157.12 207.606C1141.64 207.738 1117.3 220.035 1110.93 223.693Z" fill="#95A9C4"/>
<path d="M1105.14 195.177C1104.97 202.978 1101 210.25 1098.39 217.478C1096.79 215.407 1095.18 213.335 1093.57 211.264C1085.08 211.66 1080.14 223.957 1075.28 232.331C1067.61 234.138 1062.37 237.356 1056.04 241.014C1043.75 247.801 1031.76 257.674 1022.35 268.252C1017.14 267.987 1014.78 265.828 1010.81 264.55C1024.92 258.776 1034.67 245.553 1044.5 238.546C1054.4 231.45 1060.25 221.93 1066.62 212.542C1079.73 205.798 1093.33 203.639 1105.14 195.177Z" fill="#95A9C4"/>
<path d="M1326.97 397.918C1324.27 382.272 1322.46 376.631 1319.51 361.337C1304.27 355.343 1293.52 341.459 1282.12 328.634C1300.34 331.851 1310.81 345.25 1328.48 349.789C1348.34 349.701 1358.27 361.733 1371.83 374.823C1393.09 387.781 1405.25 400.519 1418.19 417.179C1402.13 421.851 1382.1 415.989 1371.83 413.344C1351.49 417.135 1341.9 408.584 1326.97 397.918Z" fill="#598ABD"/>
<path d="M1135.24 327.363C1125.25 318.083 1102.18 312.931 1090.57 307.747C1087.37 308.163 1086.41 311.523 1084.74 314.275C1086.41 317.795 1087.14 324.995 1090.57 327.715C1093.03 328.035 1114.66 335.554 1111.01 328.931C1118.21 323.203 1127.81 325.891 1135.24 327.363Z" fill="#5481BE"/>
<path d="M840.205 206.053C831.373 205.19 822.893 202.213 814.221 200.293C803.854 236.069 822.573 251.62 825.773 289.796C831.981 294.819 839.277 291.716 845.965 292.676C851.085 283.556 847.885 273.444 848.845 263.812C844.045 263.812 839.213 263.812 834.413 263.812C833.197 239.941 838.093 227.141 840.205 206.053Z" fill="#628FBE"/>
<path d="M851.853 193.51C852.941 204.965 847.405 208.325 845.101 216.037C850.189 232.005 853.293 247.94 856.365 263.364C856.365 250.596 856.365 237.829 856.365 225.061C856.685 203.942 863.117 202.533 876.652 190.118L851.853 193.51Z" fill="#618FBE"/>
<path d="M790.99 202.533C780.014 206.021 764.015 218.821 761.711 220.549C751.567 228.165 741.647 228.261 732.432 231.813C722.672 252.26 725.328 262.788 721.168 283.652C740.463 276.964 744.655 267.588 754.959 252.1C771.375 238.468 781.07 217.445 790.99 202.533Z" fill="url(#paint8_linear)"/>
<path d="M949.898 285.796C940.939 286.5 931.723 287.587 922.827 289.347C920.523 289.091 918.251 289.507 916.075 289.699C914.635 271.108 925.867 254.628 936.363 240.197C936.427 236.357 934.219 234.117 932.459 230.949C925.387 234.117 918.795 240.773 912.171 245.188C904.011 250.628 898.988 259.716 890.796 265.86C878.06 275.428 859.308 277.988 846.989 287.236C848.461 297.667 844.813 307.875 843.789 318.211C867.052 300.739 892.78 280.772 911.467 259.428C914.507 257.06 916.587 255.972 919.659 254.436C920.139 254.916 920.619 255.396 921.099 255.876C909.355 278.628 896.044 302.371 881.932 323.555C901.196 308.707 925.963 290.147 949.898 285.796Z" fill="#6490BF"/>
<path d="M766.927 241.829C770.478 236.517 774.958 231.269 779.31 226.085C784.91 219.653 789.422 209.541 795.726 205.317C792.142 233.221 810.478 260.548 810.478 287.396C800.238 273.38 799.918 251.301 788.686 238.469C783.086 237.925 778.798 240.933 773.614 242.501C773.102 267.268 787.022 290.916 789.358 314.211C774.126 300.291 764.911 282.468 755.183 264.964C745.807 269.476 739.727 275.748 732.079 281.7C731.503 293.699 731.759 305.827 731.759 317.891C728.079 313.571 723.727 310.435 719.376 307.171C719.056 298.467 722.063 291.588 722.063 283.044C726.767 280.836 730.255 279.268 733.775 277.668C746.927 268.324 755.087 252.228 766.927 241.829Z" fill="#5D8BBC"/>
<path d="M728.815 238.532C725.456 242.948 722.928 247.876 720.432 252.836C715.312 254.244 709.84 254.756 704.72 255.268C704.4 264.068 699.696 270.884 698.096 279.011C697.488 288.835 697.04 299.427 697.04 309.731C698.96 297.987 708.24 291.203 714.512 282.851C715.248 276.739 716.752 270.531 718.704 264.708C722.384 255.908 724.944 247.012 728.815 238.532Z" fill="#628FBE"/>
<defs>
<linearGradient id="paint0_linear" x1="700.432" y1="128.89" x2="738.634" y2="146.678" gradientUnits="userSpaceOnUse">
<stop stop-color="#77A3C8"/>
<stop offset="1" stop-color="#8BB5D6"/>
</linearGradient>
<linearGradient id="paint1_linear" x1="705.103" y1="143.519" x2="818.674" y2="99.0134" gradientUnits="userSpaceOnUse">
<stop stop-color="#F4E8E2"/>
<stop offset="1" stop-color="#8BB5D6"/>
</linearGradient>
<linearGradient id="paint2_linear" x1="730.418" y1="146.964" x2="766.324" y2="165.08" gradientUnits="userSpaceOnUse">
<stop stop-color="#77A3C8"/>
<stop offset="1" stop-color="#92B4CF"/>
</linearGradient>
<radialGradient id="paint3_radial" cx="0" cy="0" r="1" gradientUnits="userSpaceOnUse" gradientTransform="translate(688.822 153.94) rotate(109.244) scale(19.4539 78.0424)">
<stop stop-color="#77A3C8"/>
<stop offset="1" stop-color="#8BB5D6"/>
</radialGradient>
<linearGradient id="paint4_linear" x1="742.899" y1="178.264" x2="709.192" y2="176.765" gradientUnits="userSpaceOnUse">
<stop stop-color="#F1E9E5"/>
<stop offset="1" stop-color="#8BB5D6"/>
</linearGradient>
<linearGradient id="paint5_linear" x1="80.0879" y1="256.836" x2="1027.76" y2="270.3" gradientUnits="userSpaceOnUse">
<stop stop-color="#5A91C3"/>
<stop offset="0.459" stop-color="#76A4D0"/>
<stop offset="1" stop-color="#98BCE1"/>
</linearGradient>
<linearGradient id="paint6_linear" x1="261.444" y1="263.206" x2="51.8546" y2="261.969" gradientUnits="userSpaceOnUse">
<stop stop-color="#5D8FBE"/>
<stop offset="1" stop-color="#4E85B8"/>
</linearGradient>
<linearGradient id="paint7_linear" x1="971.632" y1="276.494" x2="1108.49" y2="300.26" gradientUnits="userSpaceOnUse">
<stop stop-color="#DFDBD2"/>
<stop offset="0.489583" stop-color="#C0CACA"/>
<stop offset="1" stop-color="#A7BCC4"/>
</linearGradient>
<linearGradient id="paint8_linear" x1="716.541" y1="260.331" x2="782.294" y2="231.702" gradientUnits="userSpaceOnUse">
<stop stop-color="#6698CF"/>
<stop offset="1" stop-color="#9FBDD7"/>
</linearGradient>
</defs>
</svg>
