<svg width="1440" height="900" viewBox="0 0 1440 900" fill="none" xmlns="http://www.w3.org/2000/svg">
<path d="M1440 -135.987V724.058V839.863V875.798H0.032959V839.863V731.577V-135.987H1440Z" fill="url(#paint0_linear)"/>
<path d="M1222.37 211.78C1227.31 211.697 1232.59 212.235 1238.14 213.601C1257.64 219.354 1273.91 220.389 1292.1 236.903C1304.09 233.013 1317.99 224.156 1335.26 228.17C1338.71 232.516 1360.43 228.005 1351.43 248.575C1361.19 252.424 1377.31 250.314 1386.62 266.124C1390.11 268.111 1393.17 270.718 1395.28 274.071C1408.91 267.904 1423.31 265.048 1437.75 268.235V562.884C1421.09 566.982 1404.2 564.995 1389.07 556.469C1385.7 555.972 1383.29 550.84 1381.49 549.102C1367.78 557.131 1352.35 555.683 1338.21 552.785C1332.55 548.315 1326.19 547.405 1319.83 545.418C1312.71 553.696 1304.17 552.04 1294.98 552.785C1287.85 554.193 1282.68 550.633 1276.59 547.901C1115.71 551.171 933.034 583.248 776.974 547.901C704.785 547.901 434.065 588.67 368.845 557.876C371.832 540.907 378.036 534.16 393.738 532.132C399.406 516.073 408.942 507.63 426.175 510.072C431.499 502.001 433.069 499.062 443.486 499.062C442.949 493.02 441.762 484.949 441.303 478.243C449.192 469.345 456.277 453.989 468.34 451.299C467.727 443.684 465.2 435.364 470.485 428.038C477.723 423.486 487.259 419.802 499.667 420.671C504.263 418.602 509.433 412.145 519.122 415.787C524.483 407.717 522.568 405.15 533.177 407.22C523.87 394.265 523.679 395.01 593.073 413.097C597.477 373.115 643.012 374.853 649.522 392.692C651.437 385.656 659.326 333.713 748.788 353.166C755.987 351.8 767.132 347.992 775.825 355.607C779.923 350.392 783.599 342.777 789.88 339.673C784.748 335.782 779.655 337.686 780.153 327.421C802.901 315.543 822.93 305.816 848.283 313.929C848.283 310.659 848.283 307.389 848.283 304.119C856.21 301.677 863.831 297.456 873.137 302.878C877.656 299.277 881.601 292.199 889.375 293.069C896.613 294.434 903.545 294.31 909.94 300.436C936.672 282.804 964.552 276.637 995.381 282.059C1011.16 268.152 1033.22 265.421 1051.6 274.692C1058.46 270.387 1065.12 265.462 1072.17 261.199C1083.23 260.164 1093.57 257.764 1103.53 264.883C1113.26 262.689 1118.77 260.371 1127.31 269.766C1133.48 267.449 1141.6 264.055 1149.18 259.585C1148.26 258.798 1147.3 258.095 1146.42 257.267C1149.6 252.135 1149.98 248.244 1157.22 239.759C1162.62 236.862 1174 257.267 1173.42 231.026C1185.18 224.031 1200.92 212.153 1222.37 211.78Z" fill="url(#paint1_linear)"/>
<path d="M811.747 402.708C814.39 384.207 804.241 363.596 775.212 373.198C763.608 341.328 734.771 359.167 729.563 367.155C705.895 357.967 692.147 377.171 695.708 387.353C678.283 375.433 662.581 393.396 658.79 414.215C680.121 397.783 686.364 404.198 720.524 412.228C729.18 370.797 780.804 396.045 811.747 402.708Z" fill="#EBFAFF"/>
<path d="M1151.52 359.788C1153.09 359.664 1154.7 359.706 1156.38 359.83C1160.33 365.624 1160.25 378.372 1171.7 382.304C1187.55 389.092 1200.27 394.928 1217.62 392.527C1228.95 387.023 1240.48 387.064 1248.25 372.081C1256.53 380.235 1267.9 382.139 1273.15 396.625C1289.77 395.011 1307.84 396.294 1321.02 384.373C1332.7 385.201 1348.59 391.286 1361.23 378.248C1385.28 385.574 1414.81 396.956 1437.75 387.229V563.63C1415.84 568.183 1393.59 565.989 1373.68 556.47C1369.23 555.932 1366.06 550.22 1363.72 548.316C1345.68 557.214 1325.35 555.642 1306.77 552.413C1299.3 547.405 1290.96 546.453 1282.57 544.26C1273.19 553.49 1261.96 551.586 1249.82 552.413C1240.44 553.986 1233.63 550.013 1225.62 546.991C1130.8 548.606 1030.27 556.635 929.663 561.478C910.553 551.668 895.618 542.232 886.465 533.581C869.269 536.644 856.746 538.714 839.551 552.993C814.084 552.165 793.557 550.551 777.357 531.512C768.128 527.994 759.664 528.822 750.549 521.289C748.634 532.505 757.558 532.919 746.72 543.763C727.456 545.336 718.074 546.412 713.976 546.991C719.031 545.957 728.146 542.977 715.125 537.638C692.798 537.596 689.542 539.5 683.53 519.219C665.837 515.784 654.922 508.003 639.489 527.414C612.911 529.98 595.217 520.088 578.252 494.717C566.15 497.283 555.121 500.47 541.87 488.591C546.159 470.215 549.185 452.086 564.848 439.545C578.941 440.911 591.388 440.497 603.145 451.796C614.098 446.623 621.412 447.74 626.123 433.42C645.31 448.816 667.637 460.116 685.445 435.448C698.121 432.758 712.789 428.246 727.571 433.42C729.907 421.044 729.371 410.738 740.975 406.848C753.996 405.565 764.911 403.412 777.357 412.973C787.314 398.818 792.982 389.092 815.654 390.499C820.249 389.671 826.53 379.283 838.632 386.402C840.355 387.809 860.461 381.476 853.951 398.653C875.397 400.929 893.856 405.772 888.418 433.42C894.507 435.365 901.822 435.117 907.566 439.545C911.434 434.579 906.915 429.405 917.14 427.294C922.693 430.978 932.765 421.582 932.459 437.517C945.671 436.234 959.803 438.304 968.841 427.294C972.518 420.092 969.53 409 980.33 404.82C997.525 401.467 1015.07 397.246 1032.03 404.82C1042.91 412.56 1053.29 418.106 1066.5 421.169C1096.02 418.727 1127.2 407.013 1123.9 370.053C1131.26 366.866 1140.49 360.533 1151.52 359.788Z" fill="url(#paint2_linear)"/>
<path d="M1312.29 316.578C1316.5 316.702 1320.94 317.488 1325.61 319.185C1336.64 324.649 1363.26 307.265 1357.02 334.789C1364.79 342.529 1368.09 349.027 1380.57 358.174C1386.43 351.221 1381.64 333.672 1400.22 334.789C1418.6 343.936 1430.16 348.489 1437.75 355.98V431.102C1396.73 495.006 1291.45 407.924 1203.87 451.631C1196.55 440 1186.75 437.558 1184.22 420.465C1204.02 413.925 1214.86 426.259 1231.33 404.902C1239.22 399.315 1260.09 406.392 1258.82 385.408C1245.69 379.614 1241.59 370.053 1223.48 369.846C1236.57 365.955 1249.17 356.436 1262.73 358.174C1257.48 350.393 1250.44 343.522 1247.03 334.789C1254.88 333.506 1262.92 333.009 1270.58 330.899C1279.77 328.167 1293.98 316.081 1312.29 316.578Z" fill="#9CC4EB"/>
<path d="M675.665 196.67C680.145 196.485 682.545 199.585 686.801 205.342C688.433 208.479 689.457 211.69 690.353 214.974C690.097 215.196 689.873 215.38 689.585 215.639C690.673 218.554 690.897 219.366 692.369 223.13C691.697 220.362 691.089 217.631 690.353 214.937C696.049 209.697 698.129 212.17 704.433 212.797C709.296 208.664 713.552 210.361 719.248 210.915C720.496 200.84 725.616 207.04 728.528 205.306C736.176 202.612 733.2 207.667 737.808 209.992C753.199 191.799 766.799 200.656 778.607 216.561C796.11 218.849 810.03 230.142 812.91 244.682C814.158 248.668 813.838 254.388 813.838 259.665C805.166 264.463 791.183 262.433 782.319 261.547C792.495 265.201 784.847 269.223 786.031 272.803C799.278 272.877 807.182 267.71 804.974 278.966L812.91 288.745C824.046 283.763 859.661 284.464 864.269 291.439C873.581 295.462 870.349 302.953 868.909 310.187C870.669 335.06 809.134 326.83 792.527 325.317C778.895 329.561 764.783 323.915 750.832 321.553C746.32 337.533 730.128 332.809 714.672 332.809C709.04 344.803 692.017 340.3 679.441 340.3C666.801 340.337 655.186 336.019 644.21 329.967C633.554 335.798 621.362 336.757 609.907 341.223C588.275 351.63 562.452 349.231 539.444 345.91C534.164 351.593 526.069 351.298 519.061 352.479C510.037 352.479 502.037 349.785 494.037 346.869C469.75 356.427 435.51 353.955 413.399 344.987C361.112 315.538 242.171 306.127 189.084 330.004C133.437 356.28 62.5269 358.42 0.064209 354.102V229.699C91.9662 214.827 188.028 196.338 282.682 198.773C305.785 199.364 328.025 209.07 350.36 209.07C378.104 217.484 435.735 204.272 473.654 209.07L664.593 200.619C669.585 198.072 673.009 196.781 675.665 196.67Z" fill="url(#paint3_linear)"/>
<path d="M102.942 66.1035C113.469 63.2618 119.997 60.8263 131.709 66.731C136.509 69.794 136.829 73.5581 138.749 78.3925C146.109 75.6617 151.804 78.7248 157.308 83.5592C158.588 87.3972 157.372 89.6115 156.668 93.265C168.38 93.7816 177.82 101.31 184.796 110.72C198.491 94.4827 214.203 116.035 214.203 130.759C221.915 129.099 229.787 133.527 236.571 136.59C237.147 127.143 237.115 121.829 247.45 124.965C251.098 116.182 255.834 116.293 260.25 124.338C272.058 118.95 285.177 128.324 283.897 141.166C297.017 137.107 310.233 143.048 312.665 155.411C314.009 162.534 309.913 167.294 305.625 172.867C311.513 174.786 310.745 182.093 310.745 188.366C295.897 201.357 270.682 199.991 251.93 199.991C232.091 213.166 208.891 210.324 186.076 210.324C177.436 225.234 153.628 220.805 138.109 219.366C119.965 227.706 98.7496 223.13 79.934 217.41C55.0706 229.145 25.1832 229.219 0.0317993 225.935V27.7234C3.7117 26.358 6.65567 28.8304 10.2396 32.447C15.8715 26.6531 18.3033 28.2032 22.3993 33.7388C30.5591 30.3067 30.6872 31.7828 33.2791 37.6137C40.9269 38.4625 43.6148 39.6802 47.3268 45.3634C51.1986 40.9718 54.5586 44.0719 58.8465 47.3194C84.7659 20.6748 99.4536 49.2014 102.942 66.1035Z" fill="white"/>
<path d="M275.13 199.585C270.202 201.8 258.682 208.738 255.066 195.895C256.346 182.905 267.77 176.115 278.778 184.824C280.505 182.204 282.074 176.963 286.073 173.753C286.073 167.59 282.874 165.375 291.545 162.681C285.305 159.176 283.289 163.272 284.249 152.533C282.362 142.938 285.273 136.775 293.369 146.997C297.113 145.41 295.385 139.211 304.313 142.384C305.561 139.211 304.025 135.594 307.961 133.158C302.553 129.062 299.801 130.317 301.593 121.164C300.313 121.275 298.009 127.696 291.577 122.087C289.241 110.204 292.409 102.011 306.169 108.248C308.825 102.196 305.177 97.7304 318.009 100.867C327.128 98.0994 341.176 97.1399 353.56 98.0994C356.344 98.7268 353.496 87.6187 361.752 99.9446C363.96 101.679 369.624 96.7709 369.944 106.403C373.591 98.0994 371.479 96.5495 381.783 100.867C386.039 96.5495 386.263 92.0472 395.447 97.1768C396.663 94.1507 398.871 91.7889 399.095 87.9508C391.191 81.9724 389.591 79.8689 396.375 66.731C400.631 57.0253 401.207 49.46 414.615 48.279C418.742 45.1422 420.406 41.0828 428.278 39.9756C430.614 28.2033 435.926 19.6784 443.766 28.9044C450.07 25.3617 460.214 19.5677 470.197 29.827C499.733 48.279 497.045 84.9616 510.292 109.134C519.668 109.466 517.748 110.61 520.308 119.282C529.236 109.872 534.388 107.768 539.444 119.282C553.875 107.436 565.043 109.466 563.155 128.508C564.755 132.162 560.243 132.9 559.507 134.044C569.235 138.768 567.539 142.31 565.875 150.651C575.251 151.795 574.067 153.197 574.067 162.645C582.419 159.803 584.563 163.456 589.555 167.258C579.411 175.856 573.075 176.816 564.019 166.335C555.347 170.69 546.356 170.394 539.412 169.103L533.94 179.251C547.092 193.349 521.3 195.969 508.404 182.942C504.853 180.506 501.141 181.097 497.461 180.174C497.941 195.046 486.261 196.116 474.677 194.936C463.157 207.114 452.438 200.545 439.126 194.936C426.87 199.327 410.615 204.125 392.631 200.471C382.327 195.194 388.759 192.315 389.911 188.477C382.391 184.898 378.167 187.998 373.495 189.4C366.968 207.003 354.328 201.025 344.312 192.168C345.464 177.886 333.304 183.864 322.425 183.864C320.185 188.883 322.425 191.577 322.425 195.858C312.985 202.427 308.601 198.441 302.361 194.936C293.305 203.017 285.529 202.722 275.13 199.585Z" fill="white"/>
<path d="M467.478 29.0151C459.574 29.6794 458.006 34.8091 454.71 37.3185C458.998 39.4221 460.982 44.3672 462.902 46.5445C459.222 56.1765 456.758 47.7993 453.782 48.3897C450.646 53.9622 445.847 54.7741 441.015 55.7705C431.959 49.9028 432.759 52.1539 427.351 59.4609C415.799 62.3764 422.455 67.1739 424.631 70.5321C409.623 79.5736 423.415 77.7284 420.983 83.4485C434.999 74.8499 440.535 83.9283 441.943 98.2101C440.919 102.786 430.391 100.978 423.703 100.978C436.759 117.363 422.263 125.63 406.391 124.043C403.031 122.456 400.664 117.511 399.096 115.74C394.488 126.073 392.888 127.733 381.784 127.733C377.496 125.076 372.952 123.268 369.016 121.275C362.936 128.398 357.689 127.733 348.953 127.733C346.297 131.534 341.593 134.228 338.009 136.959C341.785 140.945 340.377 143.528 341.657 147.108C350.169 150.208 348.633 151.832 350.777 159.102C352.441 155.891 355.609 157.884 358.073 157.257C355.513 144.008 360.792 148.769 366.264 149.876C373.208 145.337 373.208 148.178 379.032 150.798C388.504 140.428 397.688 141.831 405.464 150.798C399.704 152.09 404.248 155.116 403.64 157.257C411.927 153.898 414.487 154.452 422.775 159.102C419.863 148.215 424.407 151.204 430.967 149.876C438.679 147.219 445.911 148.178 453.75 148.953C453.942 141.203 454.838 137.033 458.294 132.346C463.702 125.113 467.286 128.656 471.062 128.656C472.854 117.142 472.95 120.426 480.182 125.888C489.686 126.146 492.854 120.869 498.421 116.662C498.773 104.115 505.909 106.55 514.837 107.436C516.885 97.4721 512.245 93.634 506.645 87.1389C515.733 91.715 519.893 96.0328 524.885 83.4485C519.125 72.2297 508.149 68.7977 498.453 66.8417C502.069 53.3718 501.045 45.7696 491.158 38.2411C482.998 30.9341 478.774 30.1592 467.478 29.0151Z" fill="url(#paint4_radial)"/>
<path d="M518.037 111.458C518.901 112.898 519.125 115.296 520.341 119.356C529.268 109.945 534.42 107.842 539.476 119.356C553.908 107.51 565.075 109.539 563.188 128.582C564.787 132.235 560.276 132.973 559.54 134.117C569.267 138.804 567.571 142.384 565.907 150.724C575.283 151.868 574.099 153.271 574.099 162.718C582.451 159.876 584.595 163.53 589.587 167.331C579.443 175.93 573.107 176.889 564.052 166.408C555.38 170.763 546.388 170.468 539.444 169.176L533.972 179.325C547.124 193.422 521.332 196.042 508.437 183.015C504.885 180.58 501.173 181.17 497.493 180.247C497.973 195.12 486.325 196.153 474.709 195.009C463.19 207.187 452.47 200.618 439.158 195.009C426.903 199.401 410.679 204.161 392.663 200.545C382.36 195.267 388.791 192.389 389.943 188.551C382.424 184.971 378.2 188.071 373.528 189.473C367 207.077 354.36 201.098 344.344 192.241C345.496 177.959 333.337 183.938 322.457 183.938C320.217 188.957 322.457 191.651 322.457 195.932C313.017 202.5 308.633 198.515 302.393 195.009C293.242 203.054 285.434 202.759 275.034 199.622C270.106 201.836 258.586 208.774 254.97 195.932C256.25 182.941 267.674 176.151 278.682 184.86C279.834 183.089 280.986 180.137 282.81 177.406C285.946 179.915 289.146 182.978 292.346 186.706C294.458 181.908 297.401 179.731 298.745 173.789C302.809 176.188 307.129 170.726 309.689 180.247C312.569 177.553 318.201 174.49 320.633 170.099C334.617 168.696 342.36 172.793 353.464 177.48C358.456 176.483 360.888 174.417 366.232 177.48V168.254C371.704 159.95 373.816 154.857 386.295 160.873C392.535 156.149 392.343 152.532 403.607 158.105C409.143 159.987 420.311 163.604 423.671 173.789C426.103 173.162 429.335 178.365 430.967 171.944C431.671 169.139 440.886 170.062 433.686 160.873C440.598 157.773 448.118 153.935 458.294 164.563C458.294 168.18 456.374 175.561 460.118 182.093C463.638 178.993 468.79 176.409 470.134 170.099C471.35 156.592 476.437 153.603 486.549 161.795C492.789 158.991 495.829 155.854 502.037 163.641C508.629 162.976 511.317 164.379 516.629 158.105C511.829 149.359 508.821 146.222 498.389 152.569C497.205 152.569 491.733 149.617 489.269 152.569C486.165 150.835 483.797 146.037 476.501 146.111C478.197 140.945 479.509 130.206 491.093 128.582C497.685 119.688 507.637 113.82 519.349 123.046C518.581 118.876 518.165 115.038 518.037 111.458Z" fill="url(#paint5_radial)"/>
<path d="M258.106 127.844C259.866 127.623 262.33 128.398 266.458 130.833C269.562 131.461 275.034 128.25 277.146 135.741C285.274 129.578 296.122 131.94 293.658 150.503C305.849 155.928 302.009 158.216 291.706 161.316C290.17 173.679 283.962 174.306 272.25 173.125C269.402 158.29 264.442 169.177 262.522 168.217C264.186 175.081 258.586 174.86 256.698 178.033C266.394 173.015 269.306 177.812 274.202 179.99C284.538 173.236 283.354 181.982 287.802 182.942C298.041 177.997 302.361 181.06 309.177 184.898C314.425 173.347 321.849 181.539 331.545 185.894C340.121 188.809 345.784 184.861 355.832 186.891C365.496 181.761 374.04 180.986 384.983 180.986C395.927 176.631 406.519 181.06 412.215 183.938C417.975 175.192 421.431 181.798 424.855 180.986C436.406 179.288 443.542 177.48 457.91 183.938C465.782 180.137 471.03 171.649 475.414 167.221C478.773 168.697 476.694 171.797 477.366 174.085C485.589 177.923 494.837 176.631 502.645 178.993C507.797 182.536 503.445 183.79 503.605 184.898C516.085 186.263 519.093 181.539 520.149 171.132C526.42 158.29 530.356 160.762 538.612 162.275C551.348 152.828 558.996 159.286 566.803 168.18C575.731 172.609 569.427 175.044 571.667 180.949C578.643 177.332 583.027 176.041 590.131 174.048C600.275 172.166 594.739 178.107 597.907 180.949C602.291 169.878 606.899 175.044 611.506 175.044C615.73 161.427 624.53 165.08 631.922 175.044C635.218 180.58 633.33 185.414 632.882 189.806C635.154 190.249 637.65 193.828 638.706 194.714C643.57 179.731 661.489 178.845 668.849 193.718C671.185 203.35 670.353 202.169 662.033 208.479C660.401 208.147 658.801 207.815 657.169 207.483C651.442 213.129 648.082 212.059 641.618 213.388C648.946 214.901 656.85 214.126 663.985 213.388C665.617 213.72 667.217 214.052 668.849 214.384C680.145 204.973 688.305 201.283 688.305 215.38C683.473 220.842 680.241 220.584 674.705 222.281C667.985 230.29 662.929 229.072 652.338 230.142C646.386 230.991 644.21 232.947 638.738 236.046C648.146 231.692 657.649 231.212 666.929 233.094C675.921 229.109 685.233 228.075 696.081 229.145C703.952 221.359 711.504 221.802 719.408 223.241C726.384 220.695 731.088 220.694 738.864 222.244C749.199 223.167 760.239 225.197 769.967 225.197C773.583 220.215 772.879 216.192 772.879 210.435C784.367 211.579 783.759 218.333 784.559 226.156C774.511 231.47 765.583 233.021 753.455 233.021C745.584 229.256 738.384 235.419 730.128 237.929C733.52 238.925 736.688 239.257 739.856 239.885C753.263 245.457 765.487 241.767 777.775 238.888C785.295 231.692 791.086 230.105 800.142 231.028C807.15 231.323 809.134 236.6 813.742 242.837C826.414 239.885 828.334 246.38 828.334 258.558C820.974 260.071 814.542 261.806 806.958 262.507C801.902 261.584 796.846 261.51 791.407 261.51C779.631 262.765 770.735 260.846 761.263 256.602C750.543 261.916 732.848 262.95 720.432 265.459C717.264 269.482 722.032 270.33 722.384 271.364C733.552 266.935 742.352 265.459 755.439 265.459C766.319 266.64 775.599 271.327 786.543 272.36C778.767 277.711 772.559 278.191 762.255 279.224C769.327 281.844 775.951 282.176 783.631 282.176C797.742 273.762 799.278 280.405 803.086 289.078C717.872 299.189 748.303 290.591 769.071 299.891C781.039 291.476 794.67 290.701 805.038 299.891C813.678 303.876 847.725 303.655 855.917 301.883C857.805 312.106 828.718 309.043 819.63 313.656C823.118 317.014 827.31 314.947 831.31 315.612C823.406 327.864 811.47 321.885 798.254 318.564C787.503 331.554 769.519 326.019 754.511 322.513C744.4 317.494 733.936 319.856 723.6 322.66C722.704 322.771 721.68 323.029 720.464 323.472C721.488 323.177 722.544 322.919 723.6 322.66C729.136 321.922 729.296 326.904 733.104 328.417C721.84 335.318 710.096 334.248 698.097 329.414C687.953 327.31 678.545 325.281 668.945 321.553C662.833 325.354 654.45 322.734 648.53 321.553C648.978 316.018 650.066 312.881 652.402 310.666C656.113 309.559 659.697 308.009 663.121 305.795C658.001 307.345 654.642 308.6 652.402 310.666C640.85 314.099 628.178 312.881 616.434 311.7C614.386 326.166 605.619 325.465 592.115 325.465C586.291 318.01 582.579 318.712 581.427 330.373C583.923 339.267 582.579 336.278 575.603 340.19C565.076 338.935 556.116 335.798 545.46 333.326C535.412 342.699 522.452 342.182 509.493 342.182C504.181 337.902 499.989 333.51 494.901 329.414C489.045 331.886 484.629 329.488 479.349 328.417C463.126 340.116 438.55 325.022 422.135 330.004C423.031 332.071 425.335 333.768 426.423 335.06C439.094 330.41 446.55 333.658 457.238 340.116C450.23 348.899 444.438 349.526 433.59 349.526C428.439 348.308 423.511 346.279 418.551 344.47C403.575 348.641 388.055 347.497 373.4 341.555C368.504 344.175 364.696 340.743 362.648 340.116C363.096 336.315 361.784 334.802 361.208 331.407C355.608 329.045 349.848 330.078 344.024 330.668C343.224 339.378 338.617 339.267 330.425 340.079C321.913 353.364 293.53 346.759 280.282 340.817C271.578 344.507 262.842 344.286 253.786 341.555C255.898 345.725 253.626 349.563 253.082 352.442C238.075 359.232 221.851 352.479 207.931 347.386C205.308 346.98 203.196 348.346 200.764 348.825C198.332 359.232 192.284 365.358 182.844 370.562C162.461 381.079 49.3749 385.655 6.10352e-05 369.86V335.355C7.10388 334.433 14.7197 335.134 22.3356 337.237C38.1752 323.214 72.4465 320.446 95.4219 327.089C98.9739 323.952 102.078 320.852 105.438 317.678C113.694 315.39 128.157 316.276 138.397 314.062C137.917 312.364 139.453 310.076 136.957 309.006C122.493 309.006 108.766 308.268 95.4219 302.474C90.7501 308.747 89.9501 309.596 78.9423 307.53C61.2147 303.95 42.0472 312.77 24.4796 306.09C26.9115 304.171 29.4395 304.098 30.9434 301.035C45.5351 301.035 61.6627 301.035 73.9185 295.241C79.6783 291.993 86.6221 289.742 95.4219 293.801C100.318 288.856 105.854 285.314 111.902 295.979C116.445 295.979 121.117 295.573 125.533 296.717C133.341 296.717 138.749 297.713 142.717 289.484C148.509 283.616 152.093 283.099 163.484 288.044C171.932 288.044 179.036 288.45 185.692 294.576C194.172 288.155 209.179 290.037 222.939 293.838C230.491 291.55 240.251 290.259 248.731 293.838C249.307 290.701 248.027 288.339 250.171 285.867C256.954 285.166 262.97 282.583 265.21 290.222C267.514 294.429 268.858 297.381 273.818 300.37C283.578 298.082 295.002 297.418 306.041 297.455C309.113 289.705 310.937 283.69 319.641 282.952C313.753 277.01 312.345 270.367 323.225 268.448C321.529 266.751 318.745 263.134 316.057 261.215C302.361 271.622 285.626 275.017 268.762 267.747C257.978 273.799 239.771 272.508 227.195 269.186C225.147 273.836 225.595 276.789 219.707 279.298C205.211 278.265 187.708 277.97 175.964 264.536C167.996 267.747 161.148 268.522 152.637 270.441C141.821 269.334 133.917 263.762 124.445 264.536C124.285 265.311 130.941 274.058 122.493 273.394C117.213 274.464 104.286 276.53 94.3019 270.441C83.7742 270.441 73.0865 267.858 64.1587 268.485C60.2228 273.799 63.7747 276.567 53.4709 278.339C42.2392 284.649 34.7833 286.79 24.3195 278.339C16.3517 282.841 7.45593 281.844 -0.0318604 285.719V145.927C5.02399 146.185 9.95184 147.735 14.6237 151.5C25.1195 150.429 36.6392 153.234 42.8151 166.261C50.1429 164.785 59.1667 163.383 68.0945 167.258C75.3584 163.198 79.2303 160.209 89.4702 163.309C98.9419 166.778 107.23 171.169 117.661 168.217C127.037 168.217 134.269 169.767 142.941 174.122C145.309 173.421 153.021 168.807 159.484 170.173C147.389 157.921 142.237 168.586 126.429 162.312C118.845 165.708 115.486 168.512 106.974 160.357C100.67 160.947 94.59 164.342 89.4702 151.5C74.8464 140.428 89.6942 138.472 103.07 144.598C112.99 137.07 110.014 131.461 120.573 137.734C125.021 134.339 129.501 128.471 139.037 129.874C149.085 127.844 155.197 125.593 156.541 140.687C158.653 140.908 168.636 138.768 175.996 146.591C178.044 141.24 176.508 138.472 180.86 133.823C193.852 127.992 192.252 134.45 203.228 142.679C207.579 136.812 206.492 133.195 216.827 135.815C219.131 135.594 221.051 126.774 227.515 134.819C232.603 135.335 237.723 130.944 240.155 142.679C240.891 142.126 246.011 136.553 250.843 133.823C254.266 131.239 255.194 128.176 258.106 127.844Z" fill="url(#paint6_linear)"/>
<path d="M10.1761 41.5627C15.904 41.3782 20.7359 44.5888 26.0798 50.0137C35.5836 46.8399 39.5515 50.0138 46.4633 53.1137C54.3031 45.9912 59.839 50.5304 64.8309 51.0471C78.7186 36.6545 92.5743 44.4043 98.4622 59.3135C101.566 63.8896 95.3582 67.2109 94.3982 69.6097C107.262 68.0966 108.638 70.606 115.806 79.9427C118.494 66.5835 124.99 69.7203 134.141 70.6798C145.533 67.5799 150.845 71.7502 157.597 76.8799C159.837 81.3453 160.317 85.7735 161.693 90.2758C173.788 84.5926 176.796 91.6782 180.028 103.672C167.389 108.617 155.485 104.078 143.325 100.572C143.453 111.902 138.141 114.374 132.093 119.135C142.589 115.112 142.781 117.954 147.389 126.368C161.693 123.194 164.125 126.7 171.869 135.631C170.653 141.314 165.085 142.495 164.733 142.864C155.165 145.779 147.549 140.022 139.229 136.664C130.653 152.238 108.67 150.06 91.3263 150.06C88.2864 153.456 85.4064 154.71 82.1425 157.294C77.1826 154.489 71.9027 153.677 66.8468 152.127C71.8707 144.377 78.6545 144.451 84.1904 143.897C78.8785 131.535 64.0629 131.276 52.5752 133.564C52.7352 137.661 53.2471 140.908 53.5991 144.894C49.4072 139.543 45.1833 140.908 39.3274 139.727C35.2635 122.862 8.0641 119.024 0.000289917 133.232V45.0684C3.8082 42.8173 7.1362 41.6365 10.1761 41.5627Z" fill="url(#paint7_radial)"/>
<path d="M338.521 248.631C359.544 248.631 383.992 255.568 400.888 243.021C412.151 243.021 422.327 242.431 432.759 240.216C444.983 240.216 450.71 239.552 459.094 248.631C471.862 253.317 481.654 257.746 492.374 262.654C504.789 262.654 514.133 259.296 525.653 257.045C535.509 258.041 539.285 257.672 547.828 262.654C556.596 262.654 565.396 262.654 574.164 262.654C583.348 262.654 591.923 262.949 600.499 258.447C604.659 259.37 609.715 256.38 612.979 261.252C628.115 259.849 643.09 259.444 657.33 252.838C667.954 252.838 678.577 252.838 689.201 252.838C682.513 269.887 665.33 264.056 647.634 264.056C637.01 269.444 625.619 271.585 614.355 273.873C609.939 270.994 605.107 272.95 600.499 272.471C588.723 288.266 568.916 289.299 549.204 289.299C536.341 286.125 523.189 284.427 510.389 280.885C499.669 287.712 491.158 289.299 478.518 289.299C471.606 283.726 466.998 284.797 460.502 282.287C450.326 291.365 438.519 289.299 425.847 289.299C401.496 286.568 375.544 280.516 352.377 266.861C328.825 270.81 308.026 251.731 338.521 248.631Z" fill="url(#paint8_linear)"/>
<path d="M644.05 198.331C644.05 200.582 655.122 204.383 644.05 211.542C632.114 232.172 613.491 228.038 584.883 228.038C566.1 240.032 537.78 236.305 510.901 236.305C489.237 251.214 464.63 251.177 434.455 251.177C436.503 253.797 437.75 256.676 439.382 259.444C413.399 277.268 362.68 267.71 323.481 267.71C306.937 259.038 298.49 278.375 278.618 277.047C243.899 283.136 191.452 270.625 157.021 266.787C121.438 262.211 41.6634 275.386 -0.0316772 265.865V200.877C92.4783 213.203 570.74 236.489 644.05 198.331Z" fill="url(#paint9_linear)"/>
<path d="M288.313 229.035C300.377 230.695 307.161 233.02 321.049 230.695C342.712 231.692 369.784 235.124 383.255 224.901C399.543 226.968 415.414 231.027 432.374 231.507C436.374 230.769 439.414 228.038 445.462 229.035C455.542 229.035 465.589 229.625 474.933 227.374C479.925 227.891 485.589 228.666 491.317 229.035C508.116 230.585 516.692 231.286 519.156 221.617C501.749 214.716 487.605 216.783 473.333 220.805C466.101 216.672 454.55 219.44 450.422 219.144C443.414 218.185 439.446 221.617 435.702 222.429C422.326 217.004 411.735 217.41 396.407 216.635C387.991 216.155 380.855 218.111 373.495 219.108C365.016 220.03 357.208 220.215 348.952 220.768C333.048 211.69 318.905 214.495 304.761 216.635C291.385 215.233 300.153 220.104 298.201 221.58C281.529 218.886 271.194 223.425 258.906 227.374C271.002 232.319 275.93 230.289 288.313 229.035Z" fill="url(#paint10_linear)"/>
<path d="M570.45 306.208C570.531 298.303 571.695 289.504 579.185 283.809C584.411 275.604 594.001 269.284 602.592 278.782C602.661 278.84 609.657 283.043 612 285.738C614.661 282.981 621.424 284.763 620.929 276.488C612.771 276.459 611.93 279.097 610.724 270.368C614.15 265.62 618.757 258.077 630.046 258.68C634.361 260.762 640.215 262.812 641.335 267.022C642.983 265.6 644.238 263.698 646.276 262.726C656.513 261.876 665.452 261.647 672.203 266.769C679.145 263.367 686.242 258.346 696.438 260.871C692.11 255.161 688.143 253.789 698.223 250.672C700.975 244.76 708.5 228.273 715.985 241.458C721.532 237.112 728.714 232.341 740.092 234.029C743.981 228.664 749.773 221.858 752.56 235.305C758.577 232.365 762.559 228.116 770.1 233.848C774.651 227.561 783.178 219.275 791.88 230.497C799.267 224.714 808.905 224.78 803.903 237.237C811.992 240.289 812.562 245.219 814.875 252.573C823.432 262.04 820.527 263.406 815.354 268.78C810.611 267.344 808.574 271.816 806.839 272.57C810.461 281.003 807.482 282.246 803.683 287.538C796.45 288.974 789.253 290.086 781.648 287.828C769.647 290.238 760.098 293.182 748.451 292.127C739.309 295.327 732.793 295.74 723.896 294.167C714.099 301.082 710.987 302.271 698.801 300.137C686.872 309.605 677.568 311.63 661.682 310.188C656.838 308.311 658.314 304.817 656.611 302.101C646.664 305.271 637.014 307.389 627.497 302.208C619.941 307.106 614.48 304.766 608.204 303.81C609.263 299.163 605.248 297.217 603.864 294.088C599.955 295.73 595.743 295.277 591.65 295.874C589.088 307.164 583.026 309.948 570.45 306.208Z" fill="white"/>
<path d="M703.66 313.797C713.906 317.313 722.087 322.638 732.327 316.039C743.055 316.85 751.979 315.274 759.348 323.973C766.483 326.752 769.652 329.346 778.5 326.075C782.135 327.314 788.472 330.544 793.704 331.298C803.08 330.519 808.19 330.191 811.865 321.473L828.638 320.079C835.973 319.47 841.266 319.801 847.18 314.846C847.686 313.584 857.08 312.258 849.802 308.142L859.242 307.358C870.02 306.462 871.668 306.197 873.148 296.955C881.268 300.776 892.89 296.503 891.092 291.868C902.573 297.497 906.772 286.584 902.511 278.975C897.155 274.411 889.845 273.766 878.803 276.128C872.086 271.805 870.234 270 861.494 271.08C856.94 268.054 861.645 260.921 850.316 263.692C843.654 260.81 842.282 266.318 839.032 267.391C829.627 265.892 820.273 266.926 811.57 266.911C805.896 270.112 803.726 276.842 802.146 280.634C791.884 278.853 782.609 280.459 772.731 282.146C768.566 287.277 761.6 289.621 757.696 291.712C740.076 286.786 722.284 290.223 710.608 296.555C692.258 299.46 677.841 311.447 703.66 313.797Z" fill="url(#paint11_linear)"/>
<path d="M804.31 236.336C804.206 236.633 804.103 236.931 803.97 237.263C812.058 240.316 812.628 245.245 814.976 252.628C823.533 262.096 820.628 263.461 815.423 268.838C810.68 267.402 808.643 271.874 806.908 272.628C810.53 281.061 821.245 282.098 817.446 287.39C810.212 288.826 789.322 290.144 781.685 287.889C769.684 290.299 760.135 293.243 748.488 292.188C739.346 295.388 732.798 295.803 723.933 294.228C714.136 301.143 710.992 302.335 698.838 300.198C686.909 309.666 677.605 311.691 661.719 310.25C656.875 308.372 658.351 304.878 656.649 302.162C646.701 305.332 637.052 307.45 627.534 302.269C619.978 307.167 614.518 304.827 608.241 303.871C609.3 299.224 605.285 297.278 603.904 294.181C599.994 295.823 595.783 295.37 591.69 295.967C589.091 307.196 583.029 309.98 570.484 306.237C570.566 298.332 571.729 289.533 579.219 283.838C584.446 275.633 594.035 269.314 602.627 278.811C602.696 278.869 609.692 283.072 612.035 285.767C612.33 285.454 612.697 285.231 613.064 285.008C616.034 288.678 618.22 291.804 618.86 293.71C626.109 292.465 630.101 292.198 635.217 288.465C644.807 292.196 651.514 294.465 661.145 292.508C664.958 283.137 661.551 281.172 644.146 279.215C643.753 277.963 645.191 276.334 642.964 275.427C654.189 278.348 660.465 278.533 664.552 269.749C668.046 270.454 670.81 271.637 675.33 271.936C675.785 277.421 676.199 282.781 677.534 288.032C688.875 290.044 698.097 287.801 692.36 275.177C699.299 275.211 705.661 274.104 712.546 273.5C715.59 278.449 718.374 282.97 724.219 286.466C734.934 285.576 739.234 285.925 742.744 275.615C744.442 277.497 746.955 279.921 748.581 282.098C770.935 280.241 772.633 260.481 749.725 264.182C759.769 260.618 763.34 260.322 760.917 250.087C771.132 250.138 775.102 249.615 777.817 240.945C780.022 243.523 786.085 239.969 784.642 248.887C795.094 249.849 802.29 249.123 803.106 237.303C803.526 236.947 803.922 236.689 804.31 236.336Z" fill="url(#paint12_linear)"/>
<path d="M801.015 234.554C794.485 246.014 793.762 239.235 787.001 238.641C775.198 226.039 778.742 239.327 774.947 239.642C766.575 235.104 761.052 238.966 756.212 240.235C753.235 242.666 753.678 245.68 752.45 248.286C746.381 237.07 741.83 241.815 735.436 242.925C726.722 243.552 729.758 249.561 727.387 252.327C715.932 248.559 723.118 256.214 719.177 259.784C723.188 265.166 725.495 264.333 733.911 264.372C745.162 263.373 745.066 266.078 750.081 272.726C753.631 265.591 759.962 270.299 761.977 269.811C767.725 280.636 776.014 276.833 779.152 277.118C780.278 271.341 787.849 269.717 790.486 267.442C804.079 263.327 809.252 259.108 805.341 246.814C811.845 240.847 802.112 237.706 801.015 234.554Z" fill="url(#paint13_linear)"/>
<path d="M764.471 296.736C765.615 303.159 770.989 298.667 774.215 299.619C785.856 294.029 787.345 301.515 790.7 307.497C802.308 303.065 807.734 307.303 813.008 309.337C813.008 309.337 837.453 329.558 786.919 325.375C783.405 319.791 772.511 313.889 767.871 312.155C763.727 306.72 759.396 307.144 752.516 305.115C744.099 310.47 741.711 307.233 734.69 306.596C734.825 298.557 727.415 300.585 724.488 298.196C731.691 289.441 738.109 290.161 746.964 295.879C757.405 288.59 757.215 291.335 764.471 296.736Z" fill="url(#paint14_linear)"/>
<path d="M688.74 319.724C694.698 317.624 699.604 316.382 706.231 318.849C708.081 317.154 710.913 318.011 711.658 313.839C714.558 312.41 717.394 310.216 721.802 310.716C727.218 309.817 730.708 308.917 736.261 312.373C739.878 311.077 743.657 309.8 747.76 309.716C752.53 312.242 757.798 314.983 762.688 317.017C769.169 315.804 768.475 317.114 770.813 320.901C764.652 325.587 757.836 325.094 750.244 323.766C743.323 328.194 736.964 327.406 729.037 326.684C724.498 326.547 721.081 325.226 717.069 323.697C710.685 327.245 704.159 327.145 696.452 325.987C686.375 327.98 680.508 326.156 688.74 319.724Z" fill="url(#paint15_linear)"/>
<path d="M835.2 258.751C840.81 257.867 841.89 261.214 843.912 261.977C856.254 260.951 855.923 263.548 859.421 270.867C851.791 275.258 845.126 273.885 837.608 274.991C834.851 272.33 830.892 270.283 827.52 267.962C821.165 273.018 817.649 272.443 806.622 270.341C803.682 270.906 802.862 267.603 805.135 265.198C815.741 252.95 826.091 255.398 835.2 258.751Z" fill="url(#paint16_linear)"/>
<path d="M802.94 346.699C804.956 350.283 807.58 351.851 811.996 352.203C816.732 355.371 829.915 356.938 833.403 352.011C841.435 355.595 857.915 357.163 864.059 350.443C873.882 351.243 885.274 351.147 895.61 348.299C931.897 353.259 1000.25 351.915 975.672 302.028C975.128 297.004 969.112 296.748 966.616 297.132C965.208 296.652 964.984 297.516 964.184 297.708C961.624 295.052 957.08 294.284 954.041 296.332C950.233 294.092 947.385 294.7 944.345 297.132C942.873 298.348 941.017 298.124 939.065 298.124C937.369 297.452 937.881 296.3 937.305 295.372C936.601 291.66 930.777 293.1 927.609 294.988C926.233 296.844 923.801 297.036 921.881 297.356C915.833 296.108 912.601 299.084 910.202 303.052C904.634 302.476 899.898 303.66 894.97 305.612C891.258 305.26 887.77 305.388 884.154 306.188C880.026 303.724 876.794 304.076 872.698 304.812C878.458 294.828 860.827 288.3 855.259 296.78C851.675 293.1 846.971 295.212 845.115 298.924C840.827 294.956 834.203 290.444 831.675 297.932C831.931 299.02 831.899 299.98 832.123 301.068C829.019 302.572 827.451 301.836 825.499 300.876C823.355 297.868 823.451 293.548 820.86 291.276C819.26 289.068 815.612 289.068 813.372 288.908C812.444 282.924 804.348 279.02 801.244 285.964C800.732 288.524 803.42 289.452 805.436 290.284C802.044 294.284 802.492 297.9 806.972 300.684C801.884 302.188 797.308 304.076 795.292 308.14C786.652 306.828 778.652 317.323 789.116 320.683C792.156 325.675 798.236 325.771 803.9 325.387C799.292 327.435 797.084 331.883 797.948 335.787C796.156 340.843 799.1 343.275 802.94 346.699Z" fill="url(#paint17_linear)"/>
<path d="M871.643 334.827C864.283 339.339 855.131 337.419 846.939 334.827C845.627 333.227 840.603 329.419 839.963 328.907C839.387 335.659 832.859 334.475 826.524 333.995C823.804 333.835 821.404 332.267 819.548 331.467C819.004 337.355 812.636 337.579 806.652 338.251C803.292 338.987 801.948 336.107 800.22 335.275C799.9 341.771 799.548 346.315 808.284 348.395C810.172 347.563 813.884 344.779 814.204 344.587C815.228 353.899 821.948 357.291 832.475 357.291C842.939 355.595 851.515 361.45 860.955 358.986C872.315 349.067 898.938 362.762 901.242 344.587C906.842 341.195 908.762 336.331 908.762 331.883C897.658 338.187 879.002 340.651 871.643 334.827Z" fill="url(#paint18_linear)"/>
<path d="M892.928 368.553C901.888 372.482 911.6 373.831 922.371 371.192C932.733 374.821 941.932 374.551 951.199 370.652C960.637 373.141 971.169 373.321 978.829 366.963C985.566 367.503 991.071 367.203 995.654 362.735C1001.33 362.225 1004.85 362.645 1008.85 357.996C1013.85 358.866 1018.87 359.915 1023.87 357.996C1027.59 360.185 1030.88 362.285 1036.48 360.095C1037.3 361.295 1038.91 368.973 1047.29 364.294C1052.56 366.363 1057.82 367.533 1064.11 364.834C1066.41 365.194 1067.81 366.004 1070.71 365.884C1077.76 367.113 1085.04 368.343 1091.13 363.244C1098.34 363.244 1102.14 363.334 1107.34 359.046C1114.21 360.245 1118.55 361.475 1121.15 355.357C1115.78 345.94 1107.99 347.589 1098.93 344.83C1097.18 341.411 1097.15 339.551 1091.13 340.091C1089.01 336.762 1088.56 334.573 1083.33 333.253C1083.44 332.774 1086 330.104 1084.53 327.975C1088.29 324.676 1090.58 322.127 1086.34 317.448C1087.78 317.448 1091.85 316.008 1094.14 317.448C1099.37 317.898 1102.79 318.018 1106.76 314.809C1112.47 314.299 1113.39 315.139 1114.55 309.531C1110.07 306.591 1106.83 305.302 1100.16 307.431C1097.8 306.411 1096.81 306.741 1094.14 304.792C1092.46 299.843 1094.34 299.723 1088.12 299.513C1082.27 299.513 1085.76 293.605 1077.31 299.513C1074.65 291.626 1067.23 292.436 1062.92 293.185C1053.96 286.317 1044.49 290.156 1038.3 294.235C1024.58 282.988 1010.87 283.948 996.269 291.086C993.362 295.045 995.175 296.484 996.269 300.053C998.834 299.663 1000.58 300.383 1002.87 300.593C992.268 299.723 990.216 302.813 988.472 310.61C983.138 308.751 981.873 310.94 978.863 313.249C970.246 313.339 965.903 312.829 959.645 316.938C957.457 322.757 958.551 326.086 961.457 330.644C956.431 331.664 952.669 335.173 950.036 337.482C941.966 334.333 935.742 334.963 928.424 338.532C923.808 336.822 915.771 337.302 913.412 337.482C909.582 336.642 909.479 339.911 907.393 341.171C900.725 336.372 891.937 337.452 885.781 339.072C876.275 336.552 866.085 337.842 858.767 341.711C854.389 345.58 858.459 347.739 859.963 350.138C851.517 357.786 863.486 362.555 873.779 361.715C879.489 366.423 885.576 366.633 892.928 368.553Z" fill="url(#paint19_linear)"/>
<path d="M1052.76 289.497C1056.08 289.616 1059.5 290.696 1062.85 293.275C1067.16 292.526 1074.61 291.686 1077.28 299.574C1085.73 293.665 1082.27 299.574 1088.09 299.574C1094.28 299.784 1092.39 299.903 1094.07 304.852C1096.74 306.771 1097.73 306.441 1100.09 307.491C1106.79 305.362 1110.04 306.651 1114.49 309.591C1113.32 315.199 1112.4 314.359 1106.69 314.869C1102.72 318.078 1099.34 317.958 1094.07 317.508C1091.78 316.069 1087.68 317.508 1086.27 317.508C1090.55 322.187 1088.26 324.736 1084.46 328.065C1085.93 330.195 1083.37 332.864 1083.26 333.314C1088.5 334.633 1088.97 336.852 1091.06 340.151C1097.08 339.612 1097.15 341.471 1098.86 344.89C1107.92 347.649 1115.72 346.03 1121.08 355.447C1118.49 361.565 1114.14 360.335 1107.27 359.136C1102.07 363.425 1098.28 363.334 1091.06 363.334C1084.97 368.403 1077.69 367.203 1070.65 365.974C1067.7 366.094 1066.34 365.284 1064.05 364.924C1057.75 367.623 1052.52 366.454 1047.26 364.384C1038.88 369.063 1037.27 361.355 1036.45 360.155C1030.84 362.345 1027.56 360.216 1023.83 358.056C1018.84 359.976 1013.81 358.926 1008.82 358.056C1004.82 362.705 1001.26 362.285 995.619 362.795C991.071 367.233 985.532 367.563 978.795 367.023C971.135 373.382 960.603 373.202 951.164 370.712C941.897 374.611 932.699 374.881 922.337 371.252C911.565 373.891 901.854 372.542 892.894 368.613C885.542 366.663 879.455 366.454 873.676 361.775C869.573 362.105 865.23 361.505 862.015 360.245C866.358 358.296 869.47 355.207 869.47 350.199C875.557 353.168 882.088 354.607 889.304 354.937C898.844 357.456 906.573 358.536 914.54 352.298C915.669 353.287 918.131 354.847 919.328 356.527C929.553 360.126 938.409 358.416 940.359 348.639C945.112 349.329 952.396 350.828 955.371 357.066C967.886 357.066 987.515 348.609 968.57 344.41C968.365 341.951 969.015 339.432 967.955 337.032C970.246 337.182 973.358 335.233 975.751 337.572C981.223 333.973 984.095 332.234 980.539 325.966C982.522 326.326 984.882 325.156 986.557 327.015C993.431 331.694 996.132 331.844 1003.96 329.145L1008.17 332.834C1017.33 334.303 1025.61 334.003 1023.18 323.866C1025.95 323.476 1028.38 324.166 1030.98 322.817C1028.07 319.968 1025.64 316.578 1021.37 315.979C1015.86 313.819 1010.39 313.759 1003.96 313.339C1008.17 312.23 1012.51 311.87 1016 308.601C1024.34 310.79 1032 308.451 1028 297.534C1033.71 298.434 1038.67 299.184 1042.4 303.862C1044.73 303.263 1046.37 300.293 1050.81 302.813C1055.6 298.014 1057.75 295.105 1049.62 293.335C1048.76 292.316 1048.04 291.296 1047.39 290.216C1049.17 289.707 1050.95 289.437 1052.76 289.497ZM1059.29 315.889C1058.16 317.718 1055.53 319.188 1054.47 320.117C1057.65 321.707 1055.63 324.196 1056.28 326.415C1051.26 328.605 1045.96 326.446 1041.85 325.366C1036.96 332.714 1035.56 335.593 1042.16 339.582C1042.95 339.642 1043.46 342.971 1046.67 341.681C1055.84 343.87 1066.37 342.701 1062.27 331.154C1064.11 328.575 1068.05 328.155 1067.67 323.506C1068.42 319.968 1061.52 317.688 1059.29 315.889Z" fill="url(#paint20_linear)"/>
<path d="M810.748 313.004C808.956 313.548 803.548 314.572 801.724 317.323C796.093 317.323 791.005 316.491 785.693 315.531C790.237 321.515 796.893 324.011 804.604 325.995C808.988 323.851 814.716 320.3 820.22 319.5C823.1 319.692 830.716 319.916 835.004 321.292C836.668 320.492 838.908 319.051 841.18 318.412C845.467 318.092 849.819 318.987 854.331 319.147C856.475 318.091 857.627 316.652 860.891 316.972C862.779 315.5 868.699 309.9 875.259 313.74C871.035 307.212 859.035 308.684 853.083 311.564C848.859 308.716 844.219 307.244 838.716 307.244C832.796 306.668 827.1 307.244 821.052 307.244C816.572 307.02 812.732 310.988 810.748 313.004Z" fill="url(#paint21_linear)"/>
<path d="M1026.64 221.882C1029.74 214.386 1032.24 211.081 1042.29 214.566C1042.81 206.395 1045.66 199.431 1055.58 204.329C1055.36 199.939 1054.48 198.644 1059.87 196.289C1062.89 186.09 1069.99 182.349 1077.86 191.894C1082.39 190.031 1083.09 187.524 1086.06 192.417C1091.28 190.744 1095.84 190.379 1101.97 190.66C1110.43 186.423 1123.41 185.755 1129.87 199.112C1137.95 199.627 1141.35 201.083 1141.28 208.699C1145.4 208.598 1147.99 208.362 1151.3 209.886C1152.65 206.289 1152.13 204.688 1155.01 201.262C1152.73 195.903 1152.22 189.707 1158.67 183.738C1158.55 180.959 1157.59 176.45 1159.37 172.698C1147.37 164.604 1159 152.365 1172.15 160.751L1172.46 155.775C1180.42 149.647 1190.25 144.804 1196.43 156.757C1198.35 156.697 1200.3 157.405 1202.14 156.574C1204.85 146.61 1220.85 140.849 1222.59 153.429C1225.14 153.775 1227.25 154.674 1230.13 154.457C1233.99 153.209 1235.93 151.436 1241.54 154.091C1250.6 155.471 1255.86 159.015 1254.57 168.231C1261.27 166.106 1268.35 164.661 1272.72 171.065C1274.91 168.033 1276.17 165.961 1280.79 163.814C1278.99 161.402 1280.34 159.154 1274.82 158.437C1274.32 159.062 1271.25 160.288 1272.05 162.125C1240.69 172.085 1269.54 123.79 1282.78 152.272C1284.53 152.165 1288.64 150.312 1291.67 151.745C1295.26 142.312 1301.56 145.229 1312.91 145.88C1319.63 138.943 1321.71 140.863 1329.96 146.421C1341.48 147.155 1349.55 148.946 1344.89 160.134C1352.23 164.321 1355.42 167.114 1348.33 175.339C1349.02 185.301 1346.48 189.296 1338.96 193.046C1348.03 211.2 1332.75 212.267 1320.88 219.058C1319.06 220.875 1321.66 223.812 1321.77 224.657C1322.21 230.811 1317.98 231.416 1314.26 233.622C1316.37 239.664 1313.16 239.094 1311.21 241.741C1305.64 243.574 1299.65 241.733 1294.89 240.153C1295.39 256.374 1277.52 260.121 1263.67 253.696C1252.19 259.709 1236.02 269.362 1224.47 263.411C1219.44 261.45 1209.71 260.137 1207.01 259.526C1195.46 265.244 1180.86 262.052 1170.9 260.542C1155.72 263.148 1139.63 257.965 1125.91 252.131C1121.94 256.399 1116.36 255.168 1107.37 255.397C1102.26 255.218 1098.43 252.785 1094.4 250.705C1086.8 251.314 1080.16 250.49 1074.38 247.204C1059.65 256.439 1047.29 252.842 1037.1 247.051C1028.04 250.886 1021.65 249.275 1013.06 247.196C998.925 258.874 979.878 236.147 998.823 232.432C1002.6 222.172 1011.34 222.547 1019.48 225.983C1021.57 221.23 1022.83 223.097 1026.64 221.882Z" fill="url(#paint22_linear)"/>
<path d="M1352.25 167.896C1352.21 169.826 1350.98 172.154 1348.33 175.267C1349.03 185.229 1346.48 189.224 1338.97 192.974C1348.04 211.127 1332.76 212.195 1320.85 218.983C1319.03 220.8 1321.63 223.736 1321.74 224.582C1322.18 230.736 1317.94 231.341 1314.22 233.547C1316.33 239.588 1313.13 239.019 1311.17 241.665C1305.61 243.498 1299.61 241.658 1294.81 240.075C1295.31 256.297 1277.44 260.044 1263.59 253.618C1252.11 259.631 1235.95 269.284 1224.39 263.333C1219.36 261.372 1209.63 260.059 1206.93 259.449C1195.38 265.166 1180.74 261.972 1170.82 260.464C1155.64 263.07 1139.55 257.887 1125.83 252.053C1121.86 256.321 1116.28 255.091 1107.29 255.319C1102.19 255.14 1098.35 252.707 1094.32 250.628C1086.72 251.236 1080.08 250.412 1074.3 247.127C1059.58 256.361 1047.21 252.764 1037.02 246.973C1027.96 250.808 1021.58 249.161 1012.98 247.118C999.942 257.918 982.828 239.434 995.092 233.58C998.586 243.976 1011.62 246.265 1016.9 235.189C1018.87 230.392 1017.94 229.276 1024.97 227.938C1024.6 228.57 1020.8 230.151 1022.13 232.752C1030.28 239.871 1048.89 240.766 1047.17 226.582C1052.21 230.987 1056.51 234.032 1064.43 233.771C1072.67 234.297 1078.7 234.171 1083.11 228.327C1097.06 242.234 1130.79 246.681 1125.35 220.482C1135.14 226.065 1153.7 235.526 1161.18 223.861C1166.19 231.947 1195.59 242.974 1200.88 240.795C1219.01 260.365 1240.98 240.472 1219.73 227.558C1225.26 226.962 1229.8 226.705 1234.47 224.633C1238.27 233.517 1252.15 229.734 1247.73 244.876C1252.81 244.763 1254.42 246.214 1257.42 241.629C1276.29 251.401 1287.95 232.2 1264.89 233.245C1264.57 232.386 1266.86 230.49 1263.83 230.406C1269.64 223.995 1274.47 220.548 1268.14 212.377C1284.28 213.407 1282.09 223.075 1294.99 227.398C1293.88 223.316 1292.24 220.988 1292.51 216.702C1298.48 215.661 1306.58 211.875 1306.02 203.124C1302.21 200.256 1298.85 198.182 1292.46 197.265C1297.93 195.024 1305.85 192.138 1314.01 196.415C1326.33 200.19 1330.43 196.513 1329.94 184.668C1337.36 182.298 1342.77 181.038 1341.54 171.552C1346.12 170.24 1349.81 170.366 1352.25 167.896Z" fill="url(#paint23_linear)"/>
<path d="M1345.16 176.121C1346.23 176.19 1347.3 176.368 1348.37 176.618C1348.71 185.573 1346.1 189.381 1338.97 192.974C1348.04 211.127 1332.75 212.194 1320.85 218.983C1319.03 220.799 1321.62 223.736 1321.74 224.582C1322.18 230.736 1317.94 231.341 1314.22 233.547C1316.33 239.624 1313.13 239.019 1311.17 241.665C1305.61 243.498 1299.61 241.658 1294.81 240.075C1295.03 247.053 1291.82 251.735 1287 254.272C1285.36 249.281 1282.32 244.93 1274.91 243.109C1281.02 234.674 1282.43 226.888 1266.41 225.685C1266.88 224.876 1271.81 223.221 1270.75 218.377C1267.3 214.438 1267.94 210.905 1258.87 208.358C1261.62 205.033 1258.51 200.277 1266.17 199.562C1267.28 195.841 1270.67 190.879 1268.03 185.315C1263.82 179.686 1263.4 177.143 1254.09 177.68C1264.61 177.695 1273.84 177.007 1283.26 172.794C1287.55 178.501 1288.24 180.66 1297.14 181.264C1300.31 181.758 1303.72 181.064 1306.65 182.709C1313.84 195.856 1338.35 199.425 1337.82 177.112C1340.37 176.29 1342.8 175.971 1345.16 176.121Z" fill="url(#paint24_linear)"/>
<path d="M1331.42 172.439C1325.48 186.754 1312.22 176.246 1303.69 169.832C1300.08 169.711 1298.33 170.547 1294.97 170.953C1290.22 169.848 1291.78 168.306 1289.49 166.374C1284.38 169.512 1281.06 168.862 1275.75 170.566C1284.51 186.438 1292.3 186.826 1311.18 188.03C1318.03 220.773 1361.57 174.361 1331.42 172.439Z" fill="#D9E3EC"/>
<path d="M1269.81 218.135C1263.48 228.05 1269.05 227.385 1275.23 228.326C1280.72 232.832 1277.02 234.821 1277.31 236.043C1283.4 237.051 1283.85 238.465 1288.25 240.532C1287.13 247.097 1284.42 246.487 1278.24 248.244C1277.6 245.213 1276 240.954 1275.38 238.982C1268.16 240.017 1268.1 236.476 1264.49 233.73C1256.25 233.788 1249.2 232.317 1243.05 230.832C1241.24 227.253 1239.56 223.645 1238.55 219.934C1239.54 199.942 1261.51 208.673 1269.81 218.135Z" fill="url(#paint25_linear)"/>
<path d="M1231.22 231.864C1229.27 219.379 1220.95 220.89 1212.71 219.708C1207.65 222.704 1203.71 222.598 1199.59 223.94C1198.34 218.719 1192.2 215.337 1189.6 212.328C1182.43 209.355 1172.45 211.416 1168.23 211.803C1167.39 206.025 1162.33 205.849 1160.18 203.706C1151.21 202.843 1150.92 206.178 1145.93 208.705C1139.91 215.139 1136.28 208.09 1135.25 208.024C1136.08 198.268 1135.34 202.669 1126.12 199.857C1121.98 196.312 1116.96 196.83 1113.54 195.664C1110.81 207.924 1116.55 210.514 1128.34 216.006C1120.05 217.555 1119.86 220.497 1115.99 224.516C1116.03 233.562 1116.34 232.086 1127.16 234.526C1132.24 232.335 1131.3 244.49 1135.41 242.673C1141.19 240.672 1144.73 239.913 1150.42 239.4C1151.08 251.767 1163.48 234.071 1177.41 236.053C1209.31 239.765 1196.31 249.911 1208.61 250.695C1208.09 245.813 1210.78 243.432 1211.35 241.572C1226.78 257.87 1230.62 241.27 1231.22 231.864Z" fill="url(#paint26_linear)"/>
<path d="M1188.19 216.285C1200.94 222.385 1205.37 226.569 1219.61 227.477C1235.22 221.982 1234.37 219.595 1232.91 209.948C1231.99 202.816 1244.46 201.533 1244.51 201.499C1265.51 192.993 1257.4 183.871 1241.44 179.864C1237.81 177.444 1241.84 173.508 1242.5 171.763C1233.37 162.977 1229.17 161.725 1216.04 160.888C1214.22 163.361 1213.5 165.539 1212.27 167.794C1206.04 160.615 1203.53 164.174 1197.02 163.759C1188.47 151.946 1180.61 155.857 1172.76 162.212C1179.45 165.592 1184.31 171.517 1188.55 175.47C1185.65 178.53 1182.36 179.196 1179.34 181.008C1200.08 176.424 1222.98 196.188 1190.2 201.61C1201.58 214.186 1188.49 214.226 1188.19 216.285Z" fill="url(#paint27_linear)"/>
<path d="M1394.95 877.975C1328.55 883.383 1261.19 874.615 1198.89 868.951C1158.31 868.951 1117.77 868.951 1077.19 868.951C991.723 862.903 891.981 876.919 818.03 889.239C1014.51 917.174 1226.09 925.302 1415.2 925.302C1405.83 921.494 1398.24 914.518 1390.4 909.526C1385.12 893.655 1390.91 891.383 1394.95 877.975Z" fill="#5C6A8B"/>
<defs>
<linearGradient id="paint0_linear" x1="1120.37" y1="-30.7404" x2="757.49" y2="699.893" gradientUnits="userSpaceOnUse">
<stop stop-color="#AAE8FF"/>
<stop offset="0.359375" stop-color="#D7F4FF"/>
<stop offset="1" stop-color="#F9FDFF"/>
</linearGradient>
<linearGradient id="paint1_linear" x1="822.432" y1="325.276" x2="1157.26" y2="535.439" gradientUnits="userSpaceOnUse">
<stop stop-color="#CCEDF9"/>
<stop offset="0.375" stop-color="#BFE0F4"/>
<stop offset="1" stop-color="#AACCEB"/>
</linearGradient>
<linearGradient id="paint2_linear" x1="1142" y1="471.042" x2="439.616" y2="422.471" gradientUnits="userSpaceOnUse">
<stop stop-color="#A8CBED"/>
<stop offset="1" stop-color="#AADFF3"/>
</linearGradient>
<linearGradient id="paint3_linear" x1="439.12" y1="164.71" x2="429.552" y2="378.452" gradientUnits="userSpaceOnUse">
<stop stop-color="white"/>
<stop offset="1" stop-color="#AAD0E0"/>
</linearGradient>
<radialGradient id="paint4_radial" cx="0" cy="0" r="1" gradientUnits="userSpaceOnUse" gradientTransform="translate(435.483 95.2223) rotate(53.7249) scale(58.0332 268.748)">
<stop stop-color="#EFF5F9"/>
<stop offset="1" stop-color="#C7DBEB"/>
</radialGradient>
<radialGradient id="paint5_radial" cx="0" cy="0" r="1" gradientUnits="userSpaceOnUse" gradientTransform="translate(462.262 144.885) rotate(168.324) scale(349.152 53.0094)">
<stop stop-color="#EFF5F9"/>
<stop offset="1" stop-color="#C7DBEB"/>
</radialGradient>
<linearGradient id="paint6_linear" x1="428.026" y1="369.701" x2="428.026" y2="102.017" gradientUnits="userSpaceOnUse">
<stop stop-color="#A7C9D6"/>
<stop offset="0.381" stop-color="#739EC5"/>
<stop offset="1" stop-color="#D2E0EB"/>
</linearGradient>
<radialGradient id="paint7_radial" cx="0" cy="0" r="1" gradientUnits="userSpaceOnUse" gradientTransform="translate(25.0429 102.568) rotate(-75.0905) scale(59.4838 193.332)">
<stop stop-color="#B7CFE7"/>
<stop offset="1" stop-color="#E1ECF4"/>
</radialGradient>
<linearGradient id="paint8_linear" x1="506.217" y1="282.282" x2="506.217" y2="245.095" gradientUnits="userSpaceOnUse">
<stop stop-color="#80A7CA"/>
<stop offset="1" stop-color="#ABC6DA"/>
</linearGradient>
<linearGradient id="paint9_linear" x1="325.61" y1="280.574" x2="324.593" y2="200.609" gradientUnits="userSpaceOnUse">
<stop stop-color="#80A7CA"/>
<stop offset="1" stop-color="#AEC7DD"/>
</linearGradient>
<linearGradient id="paint10_linear" x1="388.378" y1="219.656" x2="388.932" y2="234.92" gradientUnits="userSpaceOnUse">
<stop stop-color="#D3E1F0"/>
<stop offset="1" stop-color="#9BBAD5"/>
</linearGradient>
<linearGradient id="paint11_linear" x1="733.525" y1="304.79" x2="887.957" y2="305.384" gradientUnits="userSpaceOnUse">
<stop stop-color="#E4EDF4"/>
<stop offset="1" stop-color="#A7C3DA"/>
</linearGradient>
<linearGradient id="paint12_linear" x1="762.667" y1="278.213" x2="597.526" y2="239.899" gradientUnits="userSpaceOnUse">
<stop stop-color="#BAD0E2"/>
<stop offset="1" stop-color="#B6D0DA"/>
</linearGradient>
<linearGradient id="paint13_linear" x1="788.829" y1="256.287" x2="723.239" y2="238.444" gradientUnits="userSpaceOnUse">
<stop stop-color="#BAD0E2"/>
<stop offset="1" stop-color="#FBFCFD"/>
</linearGradient>
<linearGradient id="paint14_linear" x1="741.069" y1="302.899" x2="811.077" y2="327.874" gradientUnits="userSpaceOnUse">
<stop stop-color="#EEF3F8"/>
<stop offset="1" stop-color="#D8E5EF"/>
</linearGradient>
<linearGradient id="paint15_linear" x1="699.278" y1="321.072" x2="767.239" y2="322.596" gradientUnits="userSpaceOnUse">
<stop stop-color="white"/>
<stop offset="1" stop-color="#EEF3F8"/>
</linearGradient>
<linearGradient id="paint16_linear" x1="829.314" y1="257.614" x2="831.129" y2="276.983" gradientUnits="userSpaceOnUse">
<stop stop-color="white"/>
<stop offset="1" stop-color="#B9CFE2"/>
</linearGradient>
<linearGradient id="paint17_linear" x1="916" y1="370.177" x2="886.521" y2="305.748" gradientUnits="userSpaceOnUse">
<stop stop-color="#A5BCD5"/>
<stop offset="1" stop-color="white"/>
</linearGradient>
<linearGradient id="paint18_linear" x1="855.261" y1="344.909" x2="854.146" y2="330.077" gradientUnits="userSpaceOnUse">
<stop stop-color="#B5C8DD"/>
<stop offset="1" stop-color="#EFF3F7"/>
</linearGradient>
<linearGradient id="paint19_linear" x1="973.486" y1="314.384" x2="990.049" y2="351.337" gradientUnits="userSpaceOnUse">
<stop stop-color="white"/>
<stop offset="1" stop-color="#C5D4E5"/>
</linearGradient>
<linearGradient id="paint20_linear" x1="1014.87" y1="367.224" x2="989.419" y2="321.316" gradientUnits="userSpaceOnUse">
<stop stop-color="#A5BCD5"/>
<stop offset="1" stop-color="#DBE5EF"/>
</linearGradient>
<linearGradient id="paint21_linear" x1="830.925" y1="316.364" x2="828.472" y2="304.477" gradientUnits="userSpaceOnUse">
<stop stop-color="#DEE6EF"/>
<stop offset="1" stop-color="#F5F7FA"/>
</linearGradient>
<linearGradient id="paint22_linear" x1="1173" y1="209.328" x2="1184.21" y2="263.649" gradientUnits="userSpaceOnUse">
<stop stop-color="white"/>
<stop offset="1" stop-color="#B4C8DA"/>
</linearGradient>
<linearGradient id="paint23_linear" x1="1177.82" y1="255.926" x2="1174.09" y2="223.898" gradientUnits="userSpaceOnUse">
<stop stop-color="#8FB7DB"/>
<stop offset="1" stop-color="#DCE6EE"/>
</linearGradient>
<linearGradient id="paint24_linear" x1="1310.7" y1="190.128" x2="1278.67" y2="227.981" gradientUnits="userSpaceOnUse">
<stop stop-color="#D9E3EC"/>
<stop offset="1" stop-color="#B4C8DA"/>
</linearGradient>
<linearGradient id="paint25_linear" x1="1249.18" y1="217.679" x2="1281.71" y2="256.665" gradientUnits="userSpaceOnUse">
<stop stop-color="#EEF2F6"/>
<stop offset="1" stop-color="#D1DDE8"/>
</linearGradient>
<linearGradient id="paint26_linear" x1="1152.3" y1="231.434" x2="1181.52" y2="196.093" gradientUnits="userSpaceOnUse">
<stop stop-color="#C5D4E5"/>
<stop offset="1" stop-color="#D5E0EA"/>
</linearGradient>
<linearGradient id="paint27_linear" x1="1186.08" y1="195.022" x2="1263.6" y2="166.797" gradientUnits="userSpaceOnUse">
<stop stop-color="#D5E0EA"/>
<stop offset="1" stop-color="white"/>
</linearGradient>
</defs>
</svg>
