<svg id="Слой_1" data-name="Слой 1" xmlns="http://www.w3.org/2000/svg" viewBox="0 0 1814.1678 1813.78723"><defs><style>.cls-1{fill:#d5f5f7;}.cls-2{fill:#fff;}</style></defs><rect class="cls-1" x="1464.90973" y="1449.47491" width="216.05711" height="336.90796" rx="8.54838" transform="translate(3190.86718 44.9906) rotate(90)"/><path class="cls-2" d="M1404.48431,361.55789v981.30982c0,70.82243-55.619,128.72179-123.5269,128.72179H300.59718a6.13976,6.13976,0,0,1-1.07641-.0634,12.92885,12.92885,0,0,1,0-25.71931,11.82193,11.82193,0,0,0-4.94126,1.45686l316.54542-185.86026a59.66315,59.66315,0,0,1,30.2167-8.23466h497.5286c38.07169,0,69.17457-32.43447,69.17457-72.02643v-493.854L939.26336,845.71956l-757.125,444.82336c-21.66423,12.73283-48.96721-2.85032-48.96721-27.99894V275.78563c0-70.759,55.55555-128.7218,123.5269-128.7218h988.21521a12.89621,12.89621,0,0,1,12.92306,12.92306,13.03014,13.03014,0,0,1-5.70139,10.7687,5.98718,5.98718,0,0,1-1.07718.63409L935.71555,357.31335a59.659,59.659,0,0,1-30.2167,8.23467H425.20126c-38.00828,0-69.11194,32.37106-69.11194,71.963v485.112l850.18235-501.139c0-.06341-.06341-.12682-.06341-.19023l149.30884-87.73562C1377.1821,320.82534,1404.48431,336.4719,1404.48431,361.55789Z"/></svg>